<svg xmlns="http://www.w3.org/2000/svg" xmlns:xlink="http://www.w3.org/1999/xlink" width="934" height="100" viewBox="0 0 934 100"><defs><clipPath id="a"><rect width="934" height="100" transform="translate(2007 1092)" fill="#fff"/></clipPath><clipPath id="b"><rect width="120.528" height="82.276" fill="none"/></clipPath></defs><g transform="translate(-2007 -1092)" clip-path="url(#a)"><g transform="translate(6888 -2397)"><rect width="934" height="100" transform="translate(-4881 3489)" fill="#fff"/><rect width="924" height="90" transform="translate(-4876 3494)" fill="#d2eeff"/><g transform="translate(-2983.893 154.881)" opacity="0.08"><path d="M3626.92-645.764l-3.225,6.412a.545.545,0,0,0,.024.534.545.545,0,0,0,.469.256l6.378-.067a.546.546,0,0,0,.459-.261.546.546,0,0,0,.024-.527l-3.153-6.345a.547.547,0,0,0-.487-.3.546.546,0,0,0-.489.3Z" transform="translate(-5507.956 3989.999)" fill="none" stroke="#33383f" stroke-miterlimit="10" stroke-width="1"/><path d="M3646.92-645.724l-3.226,6.412a.547.547,0,0,0,.026.533.546.546,0,0,0,.467.257l6.379-.067a.545.545,0,0,0,.459-.261.545.545,0,0,0,.023-.527l-3.153-6.344a.545.545,0,0,0-.486-.3.545.545,0,0,0-.488.3Z" transform="translate(-5506.941 3990.001)" fill="none" stroke="#33383f" stroke-miterlimit="10" stroke-width="1"/><path d="M3627.09-628.765l-3.226,6.412a.547.547,0,0,0,.026.533.546.546,0,0,0,.467.257l6.379-.067a.546.546,0,0,0,.458-.261.547.547,0,0,0,.024-.527l-3.153-6.344a.544.544,0,0,0-.486-.3.545.545,0,0,0-.488.3Z" transform="translate(-5507.947 3990.858)" fill="none" stroke="#33383f" stroke-miterlimit="10" stroke-width="1"/><path d="M3647.1-628.724l-3.225,6.411a.545.545,0,0,0,.024.534.545.545,0,0,0,.469.256l6.378-.067a.545.545,0,0,0,.459-.261.544.544,0,0,0,.023-.527l-3.153-6.344a.545.545,0,0,0-.487-.3A.545.545,0,0,0,3647.1-628.724Z" transform="translate(-5506.933 3990.86)" fill="none" stroke="#33383f" stroke-miterlimit="10" stroke-width="1"/><path d="M3627.27-611.766l-3.226,6.412a.547.547,0,0,0,.025.533.546.546,0,0,0,.468.257l6.379-.067a.545.545,0,0,0,.459-.261.545.545,0,0,0,.023-.527l-3.153-6.344a.545.545,0,0,0-.486-.3.545.545,0,0,0-.488.3Z" transform="translate(-5507.938 3991.716)" fill="none" stroke="#33383f" stroke-miterlimit="10" stroke-width="1"/><path d="M3647.27-611.725l-3.225,6.411a.545.545,0,0,0,.024.534.545.545,0,0,0,.469.256l6.378-.067a.545.545,0,0,0,.459-.26.545.545,0,0,0,.024-.527l-3.153-6.345a.546.546,0,0,0-.487-.3.546.546,0,0,0-.489.3Z" transform="translate(-5506.923 3991.718)" fill="none" stroke="#33383f" stroke-miterlimit="10" stroke-width="1"/><path d="M3627.45-594.767l-3.225,6.412a.546.546,0,0,0,.025.534.545.545,0,0,0,.469.256l6.378-.067a.545.545,0,0,0,.459-.261.545.545,0,0,0,.023-.527l-3.153-6.344a.545.545,0,0,0-.486-.3.545.545,0,0,0-.488.3Z" transform="translate(-5507.929 3992.575)" fill="none" stroke="#33383f" stroke-miterlimit="10" stroke-width="1"/><path d="M3647.45-594.725l-3.226,6.411a.548.548,0,0,0,.025.533.546.546,0,0,0,.468.257l6.379-.067a.545.545,0,0,0,.459-.26.545.545,0,0,0,.023-.527l-3.153-6.345a.545.545,0,0,0-.487-.3.545.545,0,0,0-.488.3Z" transform="translate(-5506.914 3992.577)" fill="none" stroke="#33383f" stroke-miterlimit="10" stroke-width="1"/><path d="M3627.63-577.767l-3.226,6.411a.545.545,0,0,0,.024.534.545.545,0,0,0,.469.256l6.379-.067a.545.545,0,0,0,.459-.261.545.545,0,0,0,.023-.527l-3.153-6.344a.545.545,0,0,0-.487-.3A.545.545,0,0,0,3627.63-577.767Z" transform="translate(-5507.92 3993.433)" fill="none" stroke="#33383f" stroke-miterlimit="10" stroke-width="1"/><path d="M3647.63-577.727l-3.224,6.411a.545.545,0,0,0,.024.534.545.545,0,0,0,.469.256l6.378-.067a.544.544,0,0,0,.459-.26.544.544,0,0,0,.023-.527l-3.153-6.345a.545.545,0,0,0-.487-.3A.545.545,0,0,0,3647.63-577.727Z" transform="translate(-5506.905 3993.435)" fill="none" stroke="#33383f" stroke-miterlimit="10" stroke-width="1"/><path d="M3606.91-645.8l-3.226,6.411a.546.546,0,0,0,.024.534.545.545,0,0,0,.469.256l6.379-.066a.545.545,0,0,0,.459-.261.545.545,0,0,0,.023-.527l-3.153-6.345a.545.545,0,0,0-.487-.3.545.545,0,0,0-.488.3Z" transform="translate(-5445.928 3989.997)" fill="none" stroke="#33383f" stroke-miterlimit="10" stroke-width="1"/><path d="M3626.92-645.764l-3.225,6.412a.545.545,0,0,0,.024.534.545.545,0,0,0,.469.256l6.378-.067a.546.546,0,0,0,.459-.261.546.546,0,0,0,.024-.527l-3.153-6.345a.547.547,0,0,0-.487-.3.546.546,0,0,0-.489.3Z" transform="translate(-5449.241 3989.999)" fill="none" stroke="#33383f" stroke-miterlimit="10" stroke-width="1"/><path d="M3646.92-645.724l-3.226,6.412a.547.547,0,0,0,.026.533.546.546,0,0,0,.467.257l6.379-.067a.545.545,0,0,0,.459-.261.545.545,0,0,0,.023-.527l-3.153-6.344a.545.545,0,0,0-.486-.3.545.545,0,0,0-.488.3Z" transform="translate(-5449.669 3990.001)" fill="none" stroke="#33383f" stroke-miterlimit="10" stroke-width="1"/><path d="M3607.09-628.8l-3.225,6.411a.545.545,0,0,0,.024.534.545.545,0,0,0,.469.256l6.378-.066a.545.545,0,0,0,.459-.261.545.545,0,0,0,.023-.527l-3.153-6.345a.544.544,0,0,0-.486-.3.545.545,0,0,0-.488.3Z" transform="translate(-5445.918 3990.856)" fill="none" stroke="#33383f" stroke-miterlimit="10" stroke-width="1"/><path d="M3627.09-628.765l-3.226,6.412a.547.547,0,0,0,.026.533.546.546,0,0,0,.467.257l6.379-.067a.546.546,0,0,0,.458-.261.547.547,0,0,0,.024-.527l-3.153-6.344a.544.544,0,0,0-.486-.3.545.545,0,0,0-.488.3Z" transform="translate(-5449.245 3990.858)" fill="none" stroke="#33383f" stroke-miterlimit="10" stroke-width="1"/><path d="M3647.1-628.724l-3.225,6.411a.545.545,0,0,0,.024.534.545.545,0,0,0,.469.256l6.378-.067a.545.545,0,0,0,.459-.261.544.544,0,0,0,.023-.527l-3.153-6.344a.545.545,0,0,0-.487-.3A.545.545,0,0,0,3647.1-628.724Z" transform="translate(-5449.673 3990.86)" fill="none" stroke="#33383f" stroke-miterlimit="10" stroke-width="1"/><path d="M3607.27-611.8l-3.225,6.412a.543.543,0,0,0,.024.533.544.544,0,0,0,.469.256l6.378-.066a.546.546,0,0,0,.459-.261.547.547,0,0,0,.024-.527l-3.153-6.345a.546.546,0,0,0-.487-.3.546.546,0,0,0-.488.3Z" transform="translate(-5445.91 3991.714)" fill="none" stroke="#33383f" stroke-miterlimit="10" stroke-width="1"/><path d="M3627.27-611.766l-3.226,6.412a.547.547,0,0,0,.025.533.546.546,0,0,0,.468.257l6.379-.067a.545.545,0,0,0,.459-.261.545.545,0,0,0,.023-.527l-3.153-6.344a.545.545,0,0,0-.486-.3.545.545,0,0,0-.488.3Z" transform="translate(-5449.249 3991.716)" fill="none" stroke="#33383f" stroke-miterlimit="10" stroke-width="1"/><path d="M3647.27-611.725l-3.225,6.411a.545.545,0,0,0,.024.534.545.545,0,0,0,.469.256l6.378-.067a.545.545,0,0,0,.459-.26.545.545,0,0,0,.024-.527l-3.153-6.345a.546.546,0,0,0-.487-.3.546.546,0,0,0-.489.3Z" transform="translate(-5449.677 3991.718)" fill="none" stroke="#33383f" stroke-miterlimit="10" stroke-width="1"/><path d="M3607.45-594.807l-3.226,6.412a.546.546,0,0,0,.025.533.546.546,0,0,0,.468.257l6.379-.067a.547.547,0,0,0,.458-.261.547.547,0,0,0,.024-.527l-3.153-6.345a.545.545,0,0,0-.487-.3.545.545,0,0,0-.488.3Z" transform="translate(-5445.901 3992.573)" fill="none" stroke="#33383f" stroke-miterlimit="10" stroke-width="1"/><path d="M3627.45-594.767l-3.225,6.412a.546.546,0,0,0,.025.534.545.545,0,0,0,.469.256l6.378-.067a.545.545,0,0,0,.459-.261.545.545,0,0,0,.023-.527l-3.153-6.344a.545.545,0,0,0-.486-.3.545.545,0,0,0-.488.3Z" transform="translate(-5449.253 3992.575)" fill="none" stroke="#33383f" stroke-miterlimit="10" stroke-width="1"/><path d="M3647.45-594.725l-3.226,6.411a.548.548,0,0,0,.025.533.546.546,0,0,0,.468.257l6.379-.067a.545.545,0,0,0,.459-.26.545.545,0,0,0,.023-.527l-3.153-6.345a.545.545,0,0,0-.487-.3.545.545,0,0,0-.488.3Z" transform="translate(-5449.681 3992.577)" fill="none" stroke="#33383f" stroke-miterlimit="10" stroke-width="1"/><path d="M3607.63-577.808l-3.23,6.408a.545.545,0,0,0,.024.534.545.545,0,0,0,.469.257l6.378-.067a.545.545,0,0,0,.459-.261.544.544,0,0,0,.023-.527L3608.6-577.8a.545.545,0,0,0-.482-.3.545.545,0,0,0-.488.293Z" transform="translate(-5445.892 3993.431)" fill="none" stroke="#33383f" stroke-miterlimit="10" stroke-width="1"/><path d="M3627.63-577.767l-3.226,6.411a.545.545,0,0,0,.024.534.545.545,0,0,0,.469.256l6.379-.067a.545.545,0,0,0,.459-.261.545.545,0,0,0,.023-.527l-3.153-6.344a.545.545,0,0,0-.487-.3A.545.545,0,0,0,3627.63-577.767Z" transform="translate(-5449.257 3993.433)" fill="none" stroke="#33383f" stroke-miterlimit="10" stroke-width="1"/><path d="M3647.63-577.727l-3.224,6.411a.545.545,0,0,0,.024.534.545.545,0,0,0,.469.256l6.378-.067a.544.544,0,0,0,.459-.26.544.544,0,0,0,.023-.527l-3.153-6.345a.545.545,0,0,0-.487-.3A.545.545,0,0,0,3647.63-577.727Z" transform="translate(-5449.685 3993.435)" fill="none" stroke="#33383f" stroke-miterlimit="10" stroke-width="1"/><path d="M3606.91-645.8l-3.226,6.411a.546.546,0,0,0,.024.534.545.545,0,0,0,.469.256l6.379-.066a.545.545,0,0,0,.459-.261.545.545,0,0,0,.023-.527l-3.153-6.345a.545.545,0,0,0-.487-.3.545.545,0,0,0-.488.3Z" transform="translate(-5390.098 3989.997)" fill="none" stroke="#33383f" stroke-miterlimit="10" stroke-width="1"/><path d="M3626.92-645.764l-3.225,6.412a.545.545,0,0,0,.024.534.545.545,0,0,0,.469.256l6.378-.067a.546.546,0,0,0,.459-.261.546.546,0,0,0,.024-.527l-3.153-6.345a.547.547,0,0,0-.487-.3.546.546,0,0,0-.489.3Z" transform="translate(-5390.527 3989.999)" fill="none" stroke="#33383f" stroke-miterlimit="10" stroke-width="1"/><path d="M3646.92-645.724l-3.226,6.412a.547.547,0,0,0,.026.533.546.546,0,0,0,.467.257l6.379-.067a.545.545,0,0,0,.459-.261.545.545,0,0,0,.023-.527l-3.153-6.344a.545.545,0,0,0-.486-.3.545.545,0,0,0-.488.3Z" transform="translate(-5390.955 3990.001)" fill="none" stroke="#33383f" stroke-miterlimit="10" stroke-width="1"/><path d="M3607.09-628.8l-3.225,6.411a.545.545,0,0,0,.024.534.545.545,0,0,0,.469.256l6.378-.066a.545.545,0,0,0,.459-.261.545.545,0,0,0,.023-.527l-3.153-6.345a.544.544,0,0,0-.486-.3.545.545,0,0,0-.488.3Z" transform="translate(-5390.102 3990.856)" fill="none" stroke="#33383f" stroke-miterlimit="10" stroke-width="1"/><path d="M3627.09-628.765l-3.226,6.412a.547.547,0,0,0,.026.533.546.546,0,0,0,.467.257l6.379-.067a.546.546,0,0,0,.458-.261.547.547,0,0,0,.024-.527l-3.153-6.344a.544.544,0,0,0-.486-.3.545.545,0,0,0-.488.3Z" transform="translate(-5390.53 3990.858)" fill="none" stroke="#33383f" stroke-miterlimit="10" stroke-width="1"/><path d="M3647.1-628.724l-3.225,6.411a.545.545,0,0,0,.024.534.545.545,0,0,0,.469.256l6.378-.067a.545.545,0,0,0,.459-.261.544.544,0,0,0,.023-.527l-3.153-6.344a.545.545,0,0,0-.487-.3A.545.545,0,0,0,3647.1-628.724Z" transform="translate(-5390.958 3990.86)" fill="none" stroke="#33383f" stroke-miterlimit="10" stroke-width="1"/><path d="M3607.27-611.8l-3.225,6.412a.543.543,0,0,0,.024.533.544.544,0,0,0,.469.256l6.378-.066a.546.546,0,0,0,.459-.261.547.547,0,0,0,.024-.527l-3.153-6.345a.546.546,0,0,0-.487-.3.546.546,0,0,0-.488.3Z" transform="translate(-5390.105 3991.714)" fill="none" stroke="#33383f" stroke-miterlimit="10" stroke-width="1"/><path d="M3627.27-611.766l-3.226,6.412a.547.547,0,0,0,.025.533.546.546,0,0,0,.468.257l6.379-.067a.545.545,0,0,0,.459-.261.545.545,0,0,0,.023-.527l-3.153-6.344a.545.545,0,0,0-.486-.3.545.545,0,0,0-.488.3Z" transform="translate(-5390.534 3991.716)" fill="none" stroke="#33383f" stroke-miterlimit="10" stroke-width="1"/><path d="M3647.27-611.725l-3.225,6.411a.545.545,0,0,0,.024.534.545.545,0,0,0,.469.256l6.378-.067a.545.545,0,0,0,.459-.26.545.545,0,0,0,.024-.527l-3.153-6.345a.546.546,0,0,0-.487-.3.546.546,0,0,0-.489.3Z" transform="translate(-5390.963 3991.718)" fill="none" stroke="#33383f" stroke-miterlimit="10" stroke-width="1"/><path d="M3607.45-594.807l-3.226,6.412a.546.546,0,0,0,.025.533.546.546,0,0,0,.468.257l6.379-.067a.547.547,0,0,0,.458-.261.547.547,0,0,0,.024-.527l-3.153-6.345a.545.545,0,0,0-.487-.3.545.545,0,0,0-.488.3Z" transform="translate(-5390.11 3992.573)" fill="none" stroke="#33383f" stroke-miterlimit="10" stroke-width="1"/><path d="M3627.45-594.767l-3.225,6.412a.546.546,0,0,0,.025.534.545.545,0,0,0,.469.256l6.378-.067a.545.545,0,0,0,.459-.261.545.545,0,0,0,.023-.527l-3.153-6.344a.545.545,0,0,0-.486-.3.545.545,0,0,0-.488.3Z" transform="translate(-5390.538 3992.575)" fill="none" stroke="#33383f" stroke-miterlimit="10" stroke-width="1"/><path d="M3647.45-594.725l-3.226,6.411a.548.548,0,0,0,.025.533.546.546,0,0,0,.468.257l6.379-.067a.545.545,0,0,0,.459-.26.545.545,0,0,0,.023-.527l-3.153-6.345a.545.545,0,0,0-.487-.3.545.545,0,0,0-.488.3Z" transform="translate(-5390.966 3992.577)" fill="none" stroke="#33383f" stroke-miterlimit="10" stroke-width="1"/><path d="M3607.63-577.808l-3.23,6.408a.545.545,0,0,0,.024.534.545.545,0,0,0,.469.257l6.378-.067a.545.545,0,0,0,.459-.261.544.544,0,0,0,.023-.527L3608.6-577.8a.545.545,0,0,0-.482-.3.545.545,0,0,0-.488.293Z" transform="translate(-5390.113 3993.431)" fill="none" stroke="#33383f" stroke-miterlimit="10" stroke-width="1"/><path d="M3627.63-577.767l-3.226,6.411a.545.545,0,0,0,.024.534.545.545,0,0,0,.469.256l6.379-.067a.545.545,0,0,0,.459-.261.545.545,0,0,0,.023-.527l-3.153-6.344a.545.545,0,0,0-.487-.3A.545.545,0,0,0,3627.63-577.767Z" transform="translate(-5390.542 3993.433)" fill="none" stroke="#33383f" stroke-miterlimit="10" stroke-width="1"/><path d="M3647.63-577.727l-3.224,6.411a.545.545,0,0,0,.024.534.545.545,0,0,0,.469.256l6.378-.067a.544.544,0,0,0,.459-.26.544.544,0,0,0,.023-.527l-3.153-6.345a.545.545,0,0,0-.487-.3A.545.545,0,0,0,3647.63-577.727Z" transform="translate(-5390.97 3993.435)" fill="none" stroke="#33383f" stroke-miterlimit="10" stroke-width="1"/><path d="M3606.91-645.8l-3.226,6.411a.546.546,0,0,0,.024.534.545.545,0,0,0,.469.256l6.379-.066a.545.545,0,0,0,.459-.261.545.545,0,0,0,.023-.527l-3.153-6.345a.545.545,0,0,0-.487-.3.545.545,0,0,0-.488.3Z" transform="translate(-5331.383 3989.997)" fill="none" stroke="#33383f" stroke-miterlimit="10" stroke-width="1"/><path d="M3626.92-645.764l-3.225,6.412a.545.545,0,0,0,.024.534.545.545,0,0,0,.469.256l6.378-.067a.546.546,0,0,0,.459-.261.546.546,0,0,0,.024-.527l-3.153-6.345a.547.547,0,0,0-.487-.3.546.546,0,0,0-.489.3Z" transform="translate(-5331.812 3989.999)" fill="none" stroke="#33383f" stroke-miterlimit="10" stroke-width="1"/><path d="M3646.92-645.724l-3.226,6.412a.547.547,0,0,0,.026.533.546.546,0,0,0,.467.257l6.379-.067a.545.545,0,0,0,.459-.261.545.545,0,0,0,.023-.527l-3.153-6.344a.545.545,0,0,0-.486-.3.545.545,0,0,0-.488.3Z" transform="translate(-5332.24 3990.001)" fill="none" stroke="#33383f" stroke-miterlimit="10" stroke-width="1"/><path d="M3607.09-628.8l-3.225,6.411a.545.545,0,0,0,.024.534.545.545,0,0,0,.469.256l6.378-.066a.545.545,0,0,0,.459-.261.545.545,0,0,0,.023-.527l-3.153-6.345a.544.544,0,0,0-.486-.3.545.545,0,0,0-.488.3Z" transform="translate(-5331.387 3990.856)" fill="none" stroke="#33383f" stroke-miterlimit="10" stroke-width="1"/><path d="M3627.09-628.765l-3.226,6.412a.547.547,0,0,0,.026.533.546.546,0,0,0,.467.257l6.379-.067a.546.546,0,0,0,.458-.261.547.547,0,0,0,.024-.527l-3.153-6.344a.544.544,0,0,0-.486-.3.545.545,0,0,0-.488.3Z" transform="translate(-5331.815 3990.858)" fill="none" stroke="#33383f" stroke-miterlimit="10" stroke-width="1"/><path d="M3647.1-628.724l-3.225,6.411a.545.545,0,0,0,.024.534.545.545,0,0,0,.469.256l6.378-.067a.545.545,0,0,0,.459-.261.544.544,0,0,0,.023-.527l-3.153-6.344a.545.545,0,0,0-.487-.3A.545.545,0,0,0,3647.1-628.724Z" transform="translate(-5332.244 3990.86)" fill="none" stroke="#33383f" stroke-miterlimit="10" stroke-width="1"/><path d="M3607.27-611.8l-3.225,6.412a.543.543,0,0,0,.024.533.544.544,0,0,0,.469.256l6.378-.066a.546.546,0,0,0,.459-.261.547.547,0,0,0,.024-.527l-3.153-6.345a.546.546,0,0,0-.487-.3.546.546,0,0,0-.488.3Z" transform="translate(-5331.391 3991.714)" fill="none" stroke="#33383f" stroke-miterlimit="10" stroke-width="1"/><path d="M3627.27-611.766l-3.226,6.412a.547.547,0,0,0,.025.533.546.546,0,0,0,.468.257l6.379-.067a.545.545,0,0,0,.459-.261.545.545,0,0,0,.023-.527l-3.153-6.344a.545.545,0,0,0-.486-.3.545.545,0,0,0-.488.3Z" transform="translate(-5331.819 3991.716)" fill="none" stroke="#33383f" stroke-miterlimit="10" stroke-width="1"/><path d="M3647.27-611.725l-3.225,6.411a.545.545,0,0,0,.024.534.545.545,0,0,0,.469.256l6.378-.067a.545.545,0,0,0,.459-.26.545.545,0,0,0,.024-.527l-3.153-6.345a.546.546,0,0,0-.487-.3.546.546,0,0,0-.489.3Z" transform="translate(-5332.248 3991.718)" fill="none" stroke="#33383f" stroke-miterlimit="10" stroke-width="1"/><path d="M3607.45-594.807l-3.226,6.412a.546.546,0,0,0,.025.533.546.546,0,0,0,.468.257l6.379-.067a.547.547,0,0,0,.458-.261.547.547,0,0,0,.024-.527l-3.153-6.345a.545.545,0,0,0-.487-.3.545.545,0,0,0-.488.3Z" transform="translate(-5331.395 3992.573)" fill="none" stroke="#33383f" stroke-miterlimit="10" stroke-width="1"/><path d="M3627.45-594.767l-3.225,6.412a.546.546,0,0,0,.025.534.545.545,0,0,0,.469.256l6.378-.067a.545.545,0,0,0,.459-.261.545.545,0,0,0,.023-.527l-3.153-6.344a.545.545,0,0,0-.486-.3.545.545,0,0,0-.488.3Z" transform="translate(-5331.824 3992.575)" fill="none" stroke="#33383f" stroke-miterlimit="10" stroke-width="1"/><path d="M3647.45-594.725l-3.226,6.411a.548.548,0,0,0,.025.533.546.546,0,0,0,.468.257l6.379-.067a.545.545,0,0,0,.459-.26.545.545,0,0,0,.023-.527l-3.153-6.345a.545.545,0,0,0-.487-.3.545.545,0,0,0-.488.3Z" transform="translate(-5332.251 3992.577)" fill="none" stroke="#33383f" stroke-miterlimit="10" stroke-width="1"/><path d="M3607.63-577.808l-3.23,6.408a.545.545,0,0,0,.024.534.545.545,0,0,0,.469.257l6.378-.067a.545.545,0,0,0,.459-.261.544.544,0,0,0,.023-.527L3608.6-577.8a.545.545,0,0,0-.482-.3.545.545,0,0,0-.488.293Z" transform="translate(-5331.398 3993.431)" fill="none" stroke="#33383f" stroke-miterlimit="10" stroke-width="1"/><path d="M3627.63-577.767l-3.226,6.411a.545.545,0,0,0,.024.534.545.545,0,0,0,.469.256l6.379-.067a.545.545,0,0,0,.459-.261.545.545,0,0,0,.023-.527l-3.153-6.344a.545.545,0,0,0-.487-.3A.545.545,0,0,0,3627.63-577.767Z" transform="translate(-5331.827 3993.433)" fill="none" stroke="#33383f" stroke-miterlimit="10" stroke-width="1"/><path d="M3647.63-577.727l-3.224,6.411a.545.545,0,0,0,.024.534.545.545,0,0,0,.469.256l6.378-.067a.544.544,0,0,0,.459-.26.544.544,0,0,0,.023-.527l-3.153-6.345a.545.545,0,0,0-.487-.3A.545.545,0,0,0,3647.63-577.727Z" transform="translate(-5332.255 3993.435)" fill="none" stroke="#33383f" stroke-miterlimit="10" stroke-width="1"/><path d="M3606.91-645.8l-3.226,6.411a.546.546,0,0,0,.024.534.545.545,0,0,0,.469.256l6.379-.066a.545.545,0,0,0,.459-.261.545.545,0,0,0,.023-.527l-3.153-6.345a.545.545,0,0,0-.487-.3.545.545,0,0,0-.488.3Z" transform="translate(-5272.668 3989.997)" fill="none" stroke="#33383f" stroke-miterlimit="10" stroke-width="1"/><path d="M3626.92-645.764l-3.225,6.412a.545.545,0,0,0,.024.534.545.545,0,0,0,.469.256l6.378-.067a.546.546,0,0,0,.459-.261.546.546,0,0,0,.024-.527l-3.153-6.345a.547.547,0,0,0-.487-.3.546.546,0,0,0-.489.3Z" transform="translate(-5273.097 3989.999)" fill="none" stroke="#33383f" stroke-miterlimit="10" stroke-width="1"/><path d="M3646.92-645.724l-3.226,6.412a.547.547,0,0,0,.026.533.546.546,0,0,0,.467.257l6.379-.067a.545.545,0,0,0,.459-.261.545.545,0,0,0,.023-.527l-3.153-6.344a.545.545,0,0,0-.486-.3.545.545,0,0,0-.488.3Z" transform="translate(-5276.462 3990.001)" fill="none" stroke="#33383f" stroke-miterlimit="10" stroke-width="1"/><path d="M3607.09-628.8l-3.225,6.411a.545.545,0,0,0,.024.534.545.545,0,0,0,.469.256l6.378-.066a.545.545,0,0,0,.459-.261.545.545,0,0,0,.023-.527l-3.153-6.345a.544.544,0,0,0-.486-.3.545.545,0,0,0-.488.3Z" transform="translate(-5272.672 3990.856)" fill="none" stroke="#33383f" stroke-miterlimit="10" stroke-width="1"/><path d="M3627.09-628.765l-3.226,6.412a.547.547,0,0,0,.026.533.546.546,0,0,0,.467.257l6.379-.067a.546.546,0,0,0,.458-.261.547.547,0,0,0,.024-.527l-3.153-6.344a.544.544,0,0,0-.486-.3.545.545,0,0,0-.488.3Z" transform="translate(-5273.101 3990.858)" fill="none" stroke="#33383f" stroke-miterlimit="10" stroke-width="1"/><path d="M3647.1-628.724l-3.225,6.411a.545.545,0,0,0,.024.534.545.545,0,0,0,.469.256l6.378-.067a.545.545,0,0,0,.459-.261.544.544,0,0,0,.023-.527l-3.153-6.344a.545.545,0,0,0-.487-.3A.545.545,0,0,0,3647.1-628.724Z" transform="translate(-5276.453 3990.86)" fill="none" stroke="#33383f" stroke-miterlimit="10" stroke-width="1"/><path d="M3607.27-611.8l-3.225,6.412a.543.543,0,0,0,.024.533.544.544,0,0,0,.469.256l6.378-.066a.546.546,0,0,0,.459-.261.547.547,0,0,0,.024-.527l-3.153-6.345a.546.546,0,0,0-.487-.3.546.546,0,0,0-.488.3Z" transform="translate(-5272.676 3991.714)" fill="none" stroke="#33383f" stroke-miterlimit="10" stroke-width="1"/><path d="M3627.27-611.766l-3.226,6.412a.547.547,0,0,0,.025.533.546.546,0,0,0,.468.257l6.379-.067a.545.545,0,0,0,.459-.261.545.545,0,0,0,.023-.527l-3.153-6.344a.545.545,0,0,0-.486-.3.545.545,0,0,0-.488.3Z" transform="translate(-5273.104 3991.716)" fill="none" stroke="#33383f" stroke-miterlimit="10" stroke-width="1"/><path d="M3647.27-611.725l-3.225,6.411a.545.545,0,0,0,.024.534.545.545,0,0,0,.469.256l6.378-.067a.545.545,0,0,0,.459-.26.545.545,0,0,0,.024-.527l-3.153-6.345a.546.546,0,0,0-.487-.3.546.546,0,0,0-.489.3Z" transform="translate(-5276.444 3991.718)" fill="none" stroke="#33383f" stroke-miterlimit="10" stroke-width="1"/><path d="M3607.45-594.807l-3.226,6.412a.546.546,0,0,0,.025.533.546.546,0,0,0,.468.257l6.379-.067a.547.547,0,0,0,.458-.261.547.547,0,0,0,.024-.527l-3.153-6.345a.545.545,0,0,0-.487-.3.545.545,0,0,0-.488.3Z" transform="translate(-5272.68 3992.573)" fill="none" stroke="#33383f" stroke-miterlimit="10" stroke-width="1"/><path d="M3627.45-594.767l-3.225,6.412a.546.546,0,0,0,.025.534.545.545,0,0,0,.469.256l6.378-.067a.545.545,0,0,0,.459-.261.545.545,0,0,0,.023-.527l-3.153-6.344a.545.545,0,0,0-.486-.3.545.545,0,0,0-.488.3Z" transform="translate(-5273.109 3992.575)" fill="none" stroke="#33383f" stroke-miterlimit="10" stroke-width="1"/><path d="M3647.45-594.725l-3.226,6.411a.548.548,0,0,0,.025.533.546.546,0,0,0,.468.257l6.379-.067a.545.545,0,0,0,.459-.26.545.545,0,0,0,.023-.527l-3.153-6.345a.545.545,0,0,0-.487-.3.545.545,0,0,0-.488.3Z" transform="translate(-5276.435 3992.577)" fill="none" stroke="#33383f" stroke-miterlimit="10" stroke-width="1"/><path d="M3607.63-577.808l-3.23,6.408a.545.545,0,0,0,.024.534.545.545,0,0,0,.469.257l6.378-.067a.545.545,0,0,0,.459-.261.544.544,0,0,0,.023-.527L3608.6-577.8a.545.545,0,0,0-.482-.3.545.545,0,0,0-.488.293Z" transform="translate(-5272.684 3993.431)" fill="none" stroke="#33383f" stroke-miterlimit="10" stroke-width="1"/><path d="M3627.63-577.767l-3.226,6.411a.545.545,0,0,0,.024.534.545.545,0,0,0,.469.256l6.379-.067a.545.545,0,0,0,.459-.261.545.545,0,0,0,.023-.527l-3.153-6.344a.545.545,0,0,0-.487-.3A.545.545,0,0,0,3627.63-577.767Z" transform="translate(-5273.112 3993.433)" fill="none" stroke="#33383f" stroke-miterlimit="10" stroke-width="1"/><path d="M3647.63-577.727l-3.224,6.411a.545.545,0,0,0,.024.534.545.545,0,0,0,.469.256l6.378-.067a.544.544,0,0,0,.459-.26.544.544,0,0,0,.023-.527l-3.153-6.345a.545.545,0,0,0-.487-.3A.545.545,0,0,0,3647.63-577.727Z" transform="translate(-5276.426 3993.435)" fill="none" stroke="#33383f" stroke-miterlimit="10" stroke-width="1"/><path d="M3606.91-645.8l-3.226,6.411a.546.546,0,0,0,.024.534.545.545,0,0,0,.469.256l6.379-.066a.545.545,0,0,0,.459-.261.545.545,0,0,0,.023-.527l-3.153-6.345a.545.545,0,0,0-.487-.3.545.545,0,0,0-.488.3Z" transform="translate(-5215.448 3989.997)" fill="none" stroke="#33383f" stroke-miterlimit="10" stroke-width="1"/><path d="M3626.92-645.764l-3.225,6.412a.545.545,0,0,0,.024.534.545.545,0,0,0,.469.256l6.378-.067a.546.546,0,0,0,.459-.261.546.546,0,0,0,.024-.527l-3.153-6.345a.547.547,0,0,0-.487-.3.546.546,0,0,0-.489.3Z" transform="translate(-5214.434 3989.999)" fill="none" stroke="#33383f" stroke-miterlimit="10" stroke-width="1"/><path d="M3607.09-628.8l-3.225,6.411a.545.545,0,0,0,.024.534.545.545,0,0,0,.469.256l6.378-.066a.545.545,0,0,0,.459-.261.545.545,0,0,0,.023-.527l-3.153-6.345a.544.544,0,0,0-.486-.3.545.545,0,0,0-.488.3Z" transform="translate(-5215.438 3990.856)" fill="none" stroke="#33383f" stroke-miterlimit="10" stroke-width="1"/><path d="M3627.09-628.765l-3.226,6.412a.547.547,0,0,0,.026.533.546.546,0,0,0,.467.257l6.379-.067a.546.546,0,0,0,.458-.261.547.547,0,0,0,.024-.527l-3.153-6.344a.544.544,0,0,0-.486-.3.545.545,0,0,0-.488.3Z" transform="translate(-5214.424 3990.858)" fill="none" stroke="#33383f" stroke-miterlimit="10" stroke-width="1"/><path d="M3607.27-611.8l-3.225,6.412a.543.543,0,0,0,.024.533.544.544,0,0,0,.469.256l6.378-.066a.546.546,0,0,0,.459-.261.547.547,0,0,0,.024-.527l-3.153-6.345a.546.546,0,0,0-.487-.3.546.546,0,0,0-.488.3Z" transform="translate(-5215.43 3991.714)" fill="none" stroke="#33383f" stroke-miterlimit="10" stroke-width="1"/><path d="M3627.27-611.766l-3.226,6.412a.547.547,0,0,0,.025.533.546.546,0,0,0,.468.257l6.379-.067a.545.545,0,0,0,.459-.261.545.545,0,0,0,.023-.527l-3.153-6.344a.545.545,0,0,0-.486-.3.545.545,0,0,0-.488.3Z" transform="translate(-5214.416 3991.716)" fill="none" stroke="#33383f" stroke-miterlimit="10" stroke-width="1"/><path d="M3607.45-594.807l-3.226,6.412a.546.546,0,0,0,.025.533.546.546,0,0,0,.468.257l6.379-.067a.547.547,0,0,0,.458-.261.547.547,0,0,0,.024-.527l-3.153-6.345a.545.545,0,0,0-.487-.3.545.545,0,0,0-.488.3Z" transform="translate(-5215.421 3992.573)" fill="none" stroke="#33383f" stroke-miterlimit="10" stroke-width="1"/><path d="M3627.45-594.767l-3.225,6.412a.546.546,0,0,0,.025.534.545.545,0,0,0,.469.256l6.378-.067a.545.545,0,0,0,.459-.261.545.545,0,0,0,.023-.527l-3.153-6.344a.545.545,0,0,0-.486-.3.545.545,0,0,0-.488.3Z" transform="translate(-5214.407 3992.575)" fill="none" stroke="#33383f" stroke-miterlimit="10" stroke-width="1"/><path d="M3607.63-577.808l-3.23,6.408a.545.545,0,0,0,.024.534.545.545,0,0,0,.469.257l6.378-.067a.545.545,0,0,0,.459-.261.544.544,0,0,0,.023-.527L3608.6-577.8a.545.545,0,0,0-.482-.3.545.545,0,0,0-.488.293Z" transform="translate(-5215.412 3993.431)" fill="none" stroke="#33383f" stroke-miterlimit="10" stroke-width="1"/><path d="M3627.63-577.767l-3.226,6.411a.545.545,0,0,0,.024.534.545.545,0,0,0,.469.256l6.379-.067a.545.545,0,0,0,.459-.261.545.545,0,0,0,.023-.527l-3.153-6.344a.545.545,0,0,0-.487-.3A.545.545,0,0,0,3627.63-577.767Z" transform="translate(-5214.397 3993.433)" fill="none" stroke="#33383f" stroke-miterlimit="10" stroke-width="1"/></g><g transform="translate(-2670.893 154.881)" opacity="0.08"><path d="M3626.92-645.764l-3.225,6.412a.545.545,0,0,0,.024.534.545.545,0,0,0,.469.256l6.378-.067a.546.546,0,0,0,.459-.261.546.546,0,0,0,.024-.527l-3.153-6.345a.547.547,0,0,0-.487-.3.546.546,0,0,0-.489.3Z" transform="translate(-5507.956 3989.999)" fill="none" stroke="#33383f" stroke-miterlimit="10" stroke-width="1"/><path d="M3646.92-645.724l-3.226,6.412a.547.547,0,0,0,.026.533.546.546,0,0,0,.467.257l6.379-.067a.545.545,0,0,0,.459-.261.545.545,0,0,0,.023-.527l-3.153-6.344a.545.545,0,0,0-.486-.3.545.545,0,0,0-.488.3Z" transform="translate(-5506.941 3990.001)" fill="none" stroke="#33383f" stroke-miterlimit="10" stroke-width="1"/><path d="M3627.09-628.765l-3.226,6.412a.547.547,0,0,0,.026.533.546.546,0,0,0,.467.257l6.379-.067a.546.546,0,0,0,.458-.261.547.547,0,0,0,.024-.527l-3.153-6.344a.544.544,0,0,0-.486-.3.545.545,0,0,0-.488.3Z" transform="translate(-5507.947 3990.858)" fill="none" stroke="#33383f" stroke-miterlimit="10" stroke-width="1"/><path d="M3647.1-628.724l-3.225,6.411a.545.545,0,0,0,.024.534.545.545,0,0,0,.469.256l6.378-.067a.545.545,0,0,0,.459-.261.544.544,0,0,0,.023-.527l-3.153-6.344a.545.545,0,0,0-.487-.3A.545.545,0,0,0,3647.1-628.724Z" transform="translate(-5506.933 3990.86)" fill="none" stroke="#33383f" stroke-miterlimit="10" stroke-width="1"/><path d="M3627.27-611.766l-3.226,6.412a.547.547,0,0,0,.025.533.546.546,0,0,0,.468.257l6.379-.067a.545.545,0,0,0,.459-.261.545.545,0,0,0,.023-.527l-3.153-6.344a.545.545,0,0,0-.486-.3.545.545,0,0,0-.488.3Z" transform="translate(-5507.938 3991.716)" fill="none" stroke="#33383f" stroke-miterlimit="10" stroke-width="1"/><path d="M3647.27-611.725l-3.225,6.411a.545.545,0,0,0,.024.534.545.545,0,0,0,.469.256l6.378-.067a.545.545,0,0,0,.459-.26.545.545,0,0,0,.024-.527l-3.153-6.345a.546.546,0,0,0-.487-.3.546.546,0,0,0-.489.3Z" transform="translate(-5506.923 3991.718)" fill="none" stroke="#33383f" stroke-miterlimit="10" stroke-width="1"/><path d="M3627.45-594.767l-3.225,6.412a.546.546,0,0,0,.025.534.545.545,0,0,0,.469.256l6.378-.067a.545.545,0,0,0,.459-.261.545.545,0,0,0,.023-.527l-3.153-6.344a.545.545,0,0,0-.486-.3.545.545,0,0,0-.488.3Z" transform="translate(-5507.929 3992.575)" fill="none" stroke="#33383f" stroke-miterlimit="10" stroke-width="1"/><path d="M3647.45-594.725l-3.226,6.411a.548.548,0,0,0,.025.533.546.546,0,0,0,.468.257l6.379-.067a.545.545,0,0,0,.459-.26.545.545,0,0,0,.023-.527l-3.153-6.345a.545.545,0,0,0-.487-.3.545.545,0,0,0-.488.3Z" transform="translate(-5506.914 3992.577)" fill="none" stroke="#33383f" stroke-miterlimit="10" stroke-width="1"/><path d="M3627.63-577.767l-3.226,6.411a.545.545,0,0,0,.024.534.545.545,0,0,0,.469.256l6.379-.067a.545.545,0,0,0,.459-.261.545.545,0,0,0,.023-.527l-3.153-6.344a.545.545,0,0,0-.487-.3A.545.545,0,0,0,3627.63-577.767Z" transform="translate(-5507.92 3993.433)" fill="none" stroke="#33383f" stroke-miterlimit="10" stroke-width="1"/><path d="M3647.63-577.727l-3.224,6.411a.545.545,0,0,0,.024.534.545.545,0,0,0,.469.256l6.378-.067a.544.544,0,0,0,.459-.26.544.544,0,0,0,.023-.527l-3.153-6.345a.545.545,0,0,0-.487-.3A.545.545,0,0,0,3647.63-577.727Z" transform="translate(-5506.905 3993.435)" fill="none" stroke="#33383f" stroke-miterlimit="10" stroke-width="1"/><path d="M3606.91-645.8l-3.226,6.411a.546.546,0,0,0,.024.534.545.545,0,0,0,.469.256l6.379-.066a.545.545,0,0,0,.459-.261.545.545,0,0,0,.023-.527l-3.153-6.345a.545.545,0,0,0-.487-.3.545.545,0,0,0-.488.3Z" transform="translate(-5445.928 3989.997)" fill="none" stroke="#33383f" stroke-miterlimit="10" stroke-width="1"/><path d="M3626.92-645.764l-3.225,6.412a.545.545,0,0,0,.024.534.545.545,0,0,0,.469.256l6.378-.067a.546.546,0,0,0,.459-.261.546.546,0,0,0,.024-.527l-3.153-6.345a.547.547,0,0,0-.487-.3.546.546,0,0,0-.489.3Z" transform="translate(-5449.241 3989.999)" fill="none" stroke="#33383f" stroke-miterlimit="10" stroke-width="1"/><path d="M3646.92-645.724l-3.226,6.412a.547.547,0,0,0,.026.533.546.546,0,0,0,.467.257l6.379-.067a.545.545,0,0,0,.459-.261.545.545,0,0,0,.023-.527l-3.153-6.344a.545.545,0,0,0-.486-.3.545.545,0,0,0-.488.3Z" transform="translate(-5449.669 3990.001)" fill="none" stroke="#33383f" stroke-miterlimit="10" stroke-width="1"/><path d="M3607.09-628.8l-3.225,6.411a.545.545,0,0,0,.024.534.545.545,0,0,0,.469.256l6.378-.066a.545.545,0,0,0,.459-.261.545.545,0,0,0,.023-.527l-3.153-6.345a.544.544,0,0,0-.486-.3.545.545,0,0,0-.488.3Z" transform="translate(-5445.918 3990.856)" fill="none" stroke="#33383f" stroke-miterlimit="10" stroke-width="1"/><path d="M3627.09-628.765l-3.226,6.412a.547.547,0,0,0,.026.533.546.546,0,0,0,.467.257l6.379-.067a.546.546,0,0,0,.458-.261.547.547,0,0,0,.024-.527l-3.153-6.344a.544.544,0,0,0-.486-.3.545.545,0,0,0-.488.3Z" transform="translate(-5449.245 3990.858)" fill="none" stroke="#33383f" stroke-miterlimit="10" stroke-width="1"/><path d="M3647.1-628.724l-3.225,6.411a.545.545,0,0,0,.024.534.545.545,0,0,0,.469.256l6.378-.067a.545.545,0,0,0,.459-.261.544.544,0,0,0,.023-.527l-3.153-6.344a.545.545,0,0,0-.487-.3A.545.545,0,0,0,3647.1-628.724Z" transform="translate(-5449.673 3990.86)" fill="none" stroke="#33383f" stroke-miterlimit="10" stroke-width="1"/><path d="M3607.27-611.8l-3.225,6.412a.543.543,0,0,0,.024.533.544.544,0,0,0,.469.256l6.378-.066a.546.546,0,0,0,.459-.261.547.547,0,0,0,.024-.527l-3.153-6.345a.546.546,0,0,0-.487-.3.546.546,0,0,0-.488.3Z" transform="translate(-5445.91 3991.714)" fill="none" stroke="#33383f" stroke-miterlimit="10" stroke-width="1"/><path d="M3627.27-611.766l-3.226,6.412a.547.547,0,0,0,.025.533.546.546,0,0,0,.468.257l6.379-.067a.545.545,0,0,0,.459-.261.545.545,0,0,0,.023-.527l-3.153-6.344a.545.545,0,0,0-.486-.3.545.545,0,0,0-.488.3Z" transform="translate(-5449.249 3991.716)" fill="none" stroke="#33383f" stroke-miterlimit="10" stroke-width="1"/><path d="M3647.27-611.725l-3.225,6.411a.545.545,0,0,0,.024.534.545.545,0,0,0,.469.256l6.378-.067a.545.545,0,0,0,.459-.26.545.545,0,0,0,.024-.527l-3.153-6.345a.546.546,0,0,0-.487-.3.546.546,0,0,0-.489.3Z" transform="translate(-5449.677 3991.718)" fill="none" stroke="#33383f" stroke-miterlimit="10" stroke-width="1"/><path d="M3607.45-594.807l-3.226,6.412a.546.546,0,0,0,.025.533.546.546,0,0,0,.468.257l6.379-.067a.547.547,0,0,0,.458-.261.547.547,0,0,0,.024-.527l-3.153-6.345a.545.545,0,0,0-.487-.3.545.545,0,0,0-.488.3Z" transform="translate(-5445.901 3992.573)" fill="none" stroke="#33383f" stroke-miterlimit="10" stroke-width="1"/><path d="M3627.45-594.767l-3.225,6.412a.546.546,0,0,0,.025.534.545.545,0,0,0,.469.256l6.378-.067a.545.545,0,0,0,.459-.261.545.545,0,0,0,.023-.527l-3.153-6.344a.545.545,0,0,0-.486-.3.545.545,0,0,0-.488.3Z" transform="translate(-5449.253 3992.575)" fill="none" stroke="#33383f" stroke-miterlimit="10" stroke-width="1"/><path d="M3647.45-594.725l-3.226,6.411a.548.548,0,0,0,.025.533.546.546,0,0,0,.468.257l6.379-.067a.545.545,0,0,0,.459-.26.545.545,0,0,0,.023-.527l-3.153-6.345a.545.545,0,0,0-.487-.3.545.545,0,0,0-.488.3Z" transform="translate(-5449.681 3992.577)" fill="none" stroke="#33383f" stroke-miterlimit="10" stroke-width="1"/><path d="M3607.63-577.808l-3.23,6.408a.545.545,0,0,0,.024.534.545.545,0,0,0,.469.257l6.378-.067a.545.545,0,0,0,.459-.261.544.544,0,0,0,.023-.527L3608.6-577.8a.545.545,0,0,0-.482-.3.545.545,0,0,0-.488.293Z" transform="translate(-5445.892 3993.431)" fill="none" stroke="#33383f" stroke-miterlimit="10" stroke-width="1"/><path d="M3627.63-577.767l-3.226,6.411a.545.545,0,0,0,.024.534.545.545,0,0,0,.469.256l6.379-.067a.545.545,0,0,0,.459-.261.545.545,0,0,0,.023-.527l-3.153-6.344a.545.545,0,0,0-.487-.3A.545.545,0,0,0,3627.63-577.767Z" transform="translate(-5449.257 3993.433)" fill="none" stroke="#33383f" stroke-miterlimit="10" stroke-width="1"/><path d="M3647.63-577.727l-3.224,6.411a.545.545,0,0,0,.024.534.545.545,0,0,0,.469.256l6.378-.067a.544.544,0,0,0,.459-.26.544.544,0,0,0,.023-.527l-3.153-6.345a.545.545,0,0,0-.487-.3A.545.545,0,0,0,3647.63-577.727Z" transform="translate(-5449.685 3993.435)" fill="none" stroke="#33383f" stroke-miterlimit="10" stroke-width="1"/><path d="M3606.91-645.8l-3.226,6.411a.546.546,0,0,0,.024.534.545.545,0,0,0,.469.256l6.379-.066a.545.545,0,0,0,.459-.261.545.545,0,0,0,.023-.527l-3.153-6.345a.545.545,0,0,0-.487-.3.545.545,0,0,0-.488.3Z" transform="translate(-5390.098 3989.997)" fill="none" stroke="#33383f" stroke-miterlimit="10" stroke-width="1"/><path d="M3626.92-645.764l-3.225,6.412a.545.545,0,0,0,.024.534.545.545,0,0,0,.469.256l6.378-.067a.546.546,0,0,0,.459-.261.546.546,0,0,0,.024-.527l-3.153-6.345a.547.547,0,0,0-.487-.3.546.546,0,0,0-.489.3Z" transform="translate(-5390.527 3989.999)" fill="none" stroke="#33383f" stroke-miterlimit="10" stroke-width="1"/><path d="M3646.92-645.724l-3.226,6.412a.547.547,0,0,0,.026.533.546.546,0,0,0,.467.257l6.379-.067a.545.545,0,0,0,.459-.261.545.545,0,0,0,.023-.527l-3.153-6.344a.545.545,0,0,0-.486-.3.545.545,0,0,0-.488.3Z" transform="translate(-5390.955 3990.001)" fill="none" stroke="#33383f" stroke-miterlimit="10" stroke-width="1"/><path d="M3607.09-628.8l-3.225,6.411a.545.545,0,0,0,.024.534.545.545,0,0,0,.469.256l6.378-.066a.545.545,0,0,0,.459-.261.545.545,0,0,0,.023-.527l-3.153-6.345a.544.544,0,0,0-.486-.3.545.545,0,0,0-.488.3Z" transform="translate(-5390.102 3990.856)" fill="none" stroke="#33383f" stroke-miterlimit="10" stroke-width="1"/><path d="M3627.09-628.765l-3.226,6.412a.547.547,0,0,0,.026.533.546.546,0,0,0,.467.257l6.379-.067a.546.546,0,0,0,.458-.261.547.547,0,0,0,.024-.527l-3.153-6.344a.544.544,0,0,0-.486-.3.545.545,0,0,0-.488.3Z" transform="translate(-5390.53 3990.858)" fill="none" stroke="#33383f" stroke-miterlimit="10" stroke-width="1"/><path d="M3647.1-628.724l-3.225,6.411a.545.545,0,0,0,.024.534.545.545,0,0,0,.469.256l6.378-.067a.545.545,0,0,0,.459-.261.544.544,0,0,0,.023-.527l-3.153-6.344a.545.545,0,0,0-.487-.3A.545.545,0,0,0,3647.1-628.724Z" transform="translate(-5390.958 3990.86)" fill="none" stroke="#33383f" stroke-miterlimit="10" stroke-width="1"/><path d="M3607.27-611.8l-3.225,6.412a.543.543,0,0,0,.024.533.544.544,0,0,0,.469.256l6.378-.066a.546.546,0,0,0,.459-.261.547.547,0,0,0,.024-.527l-3.153-6.345a.546.546,0,0,0-.487-.3.546.546,0,0,0-.488.3Z" transform="translate(-5390.105 3991.714)" fill="none" stroke="#33383f" stroke-miterlimit="10" stroke-width="1"/><path d="M3627.27-611.766l-3.226,6.412a.547.547,0,0,0,.025.533.546.546,0,0,0,.468.257l6.379-.067a.545.545,0,0,0,.459-.261.545.545,0,0,0,.023-.527l-3.153-6.344a.545.545,0,0,0-.486-.3.545.545,0,0,0-.488.3Z" transform="translate(-5390.534 3991.716)" fill="none" stroke="#33383f" stroke-miterlimit="10" stroke-width="1"/><path d="M3647.27-611.725l-3.225,6.411a.545.545,0,0,0,.024.534.545.545,0,0,0,.469.256l6.378-.067a.545.545,0,0,0,.459-.26.545.545,0,0,0,.024-.527l-3.153-6.345a.546.546,0,0,0-.487-.3.546.546,0,0,0-.489.3Z" transform="translate(-5390.963 3991.718)" fill="none" stroke="#33383f" stroke-miterlimit="10" stroke-width="1"/><path d="M3607.45-594.807l-3.226,6.412a.546.546,0,0,0,.025.533.546.546,0,0,0,.468.257l6.379-.067a.547.547,0,0,0,.458-.261.547.547,0,0,0,.024-.527l-3.153-6.345a.545.545,0,0,0-.487-.3.545.545,0,0,0-.488.3Z" transform="translate(-5390.11 3992.573)" fill="none" stroke="#33383f" stroke-miterlimit="10" stroke-width="1"/><path d="M3627.45-594.767l-3.225,6.412a.546.546,0,0,0,.025.534.545.545,0,0,0,.469.256l6.378-.067a.545.545,0,0,0,.459-.261.545.545,0,0,0,.023-.527l-3.153-6.344a.545.545,0,0,0-.486-.3.545.545,0,0,0-.488.3Z" transform="translate(-5390.538 3992.575)" fill="none" stroke="#33383f" stroke-miterlimit="10" stroke-width="1"/><path d="M3647.45-594.725l-3.226,6.411a.548.548,0,0,0,.025.533.546.546,0,0,0,.468.257l6.379-.067a.545.545,0,0,0,.459-.26.545.545,0,0,0,.023-.527l-3.153-6.345a.545.545,0,0,0-.487-.3.545.545,0,0,0-.488.3Z" transform="translate(-5390.966 3992.577)" fill="none" stroke="#33383f" stroke-miterlimit="10" stroke-width="1"/><path d="M3607.63-577.808l-3.23,6.408a.545.545,0,0,0,.024.534.545.545,0,0,0,.469.257l6.378-.067a.545.545,0,0,0,.459-.261.544.544,0,0,0,.023-.527L3608.6-577.8a.545.545,0,0,0-.482-.3.545.545,0,0,0-.488.293Z" transform="translate(-5390.113 3993.431)" fill="none" stroke="#33383f" stroke-miterlimit="10" stroke-width="1"/><path d="M3627.63-577.767l-3.226,6.411a.545.545,0,0,0,.024.534.545.545,0,0,0,.469.256l6.379-.067a.545.545,0,0,0,.459-.261.545.545,0,0,0,.023-.527l-3.153-6.344a.545.545,0,0,0-.487-.3A.545.545,0,0,0,3627.63-577.767Z" transform="translate(-5390.542 3993.433)" fill="none" stroke="#33383f" stroke-miterlimit="10" stroke-width="1"/><path d="M3647.63-577.727l-3.224,6.411a.545.545,0,0,0,.024.534.545.545,0,0,0,.469.256l6.378-.067a.544.544,0,0,0,.459-.26.544.544,0,0,0,.023-.527l-3.153-6.345a.545.545,0,0,0-.487-.3A.545.545,0,0,0,3647.63-577.727Z" transform="translate(-5390.97 3993.435)" fill="none" stroke="#33383f" stroke-miterlimit="10" stroke-width="1"/><path d="M3606.91-645.8l-3.226,6.411a.546.546,0,0,0,.024.534.545.545,0,0,0,.469.256l6.379-.066a.545.545,0,0,0,.459-.261.545.545,0,0,0,.023-.527l-3.153-6.345a.545.545,0,0,0-.487-.3.545.545,0,0,0-.488.3Z" transform="translate(-5331.383 3989.997)" fill="none" stroke="#33383f" stroke-miterlimit="10" stroke-width="1"/><path d="M3626.92-645.764l-3.225,6.412a.545.545,0,0,0,.024.534.545.545,0,0,0,.469.256l6.378-.067a.546.546,0,0,0,.459-.261.546.546,0,0,0,.024-.527l-3.153-6.345a.547.547,0,0,0-.487-.3.546.546,0,0,0-.489.3Z" transform="translate(-5331.812 3989.999)" fill="none" stroke="#33383f" stroke-miterlimit="10" stroke-width="1"/><path d="M3646.92-645.724l-3.226,6.412a.547.547,0,0,0,.026.533.546.546,0,0,0,.467.257l6.379-.067a.545.545,0,0,0,.459-.261.545.545,0,0,0,.023-.527l-3.153-6.344a.545.545,0,0,0-.486-.3.545.545,0,0,0-.488.3Z" transform="translate(-5332.24 3990.001)" fill="none" stroke="#33383f" stroke-miterlimit="10" stroke-width="1"/><path d="M3607.09-628.8l-3.225,6.411a.545.545,0,0,0,.024.534.545.545,0,0,0,.469.256l6.378-.066a.545.545,0,0,0,.459-.261.545.545,0,0,0,.023-.527l-3.153-6.345a.544.544,0,0,0-.486-.3.545.545,0,0,0-.488.3Z" transform="translate(-5331.387 3990.856)" fill="none" stroke="#33383f" stroke-miterlimit="10" stroke-width="1"/><path d="M3627.09-628.765l-3.226,6.412a.547.547,0,0,0,.026.533.546.546,0,0,0,.467.257l6.379-.067a.546.546,0,0,0,.458-.261.547.547,0,0,0,.024-.527l-3.153-6.344a.544.544,0,0,0-.486-.3.545.545,0,0,0-.488.3Z" transform="translate(-5331.815 3990.858)" fill="none" stroke="#33383f" stroke-miterlimit="10" stroke-width="1"/><path d="M3647.1-628.724l-3.225,6.411a.545.545,0,0,0,.024.534.545.545,0,0,0,.469.256l6.378-.067a.545.545,0,0,0,.459-.261.544.544,0,0,0,.023-.527l-3.153-6.344a.545.545,0,0,0-.487-.3A.545.545,0,0,0,3647.1-628.724Z" transform="translate(-5332.244 3990.86)" fill="none" stroke="#33383f" stroke-miterlimit="10" stroke-width="1"/><path d="M3607.27-611.8l-3.225,6.412a.543.543,0,0,0,.024.533.544.544,0,0,0,.469.256l6.378-.066a.546.546,0,0,0,.459-.261.547.547,0,0,0,.024-.527l-3.153-6.345a.546.546,0,0,0-.487-.3.546.546,0,0,0-.488.3Z" transform="translate(-5331.391 3991.714)" fill="none" stroke="#33383f" stroke-miterlimit="10" stroke-width="1"/><path d="M3627.27-611.766l-3.226,6.412a.547.547,0,0,0,.025.533.546.546,0,0,0,.468.257l6.379-.067a.545.545,0,0,0,.459-.261.545.545,0,0,0,.023-.527l-3.153-6.344a.545.545,0,0,0-.486-.3.545.545,0,0,0-.488.3Z" transform="translate(-5331.819 3991.716)" fill="none" stroke="#33383f" stroke-miterlimit="10" stroke-width="1"/><path d="M3647.27-611.725l-3.225,6.411a.545.545,0,0,0,.024.534.545.545,0,0,0,.469.256l6.378-.067a.545.545,0,0,0,.459-.26.545.545,0,0,0,.024-.527l-3.153-6.345a.546.546,0,0,0-.487-.3.546.546,0,0,0-.489.3Z" transform="translate(-5332.248 3991.718)" fill="none" stroke="#33383f" stroke-miterlimit="10" stroke-width="1"/><path d="M3607.45-594.807l-3.226,6.412a.546.546,0,0,0,.025.533.546.546,0,0,0,.468.257l6.379-.067a.547.547,0,0,0,.458-.261.547.547,0,0,0,.024-.527l-3.153-6.345a.545.545,0,0,0-.487-.3.545.545,0,0,0-.488.3Z" transform="translate(-5331.395 3992.573)" fill="none" stroke="#33383f" stroke-miterlimit="10" stroke-width="1"/><path d="M3627.45-594.767l-3.225,6.412a.546.546,0,0,0,.025.534.545.545,0,0,0,.469.256l6.378-.067a.545.545,0,0,0,.459-.261.545.545,0,0,0,.023-.527l-3.153-6.344a.545.545,0,0,0-.486-.3.545.545,0,0,0-.488.3Z" transform="translate(-5331.824 3992.575)" fill="none" stroke="#33383f" stroke-miterlimit="10" stroke-width="1"/><path d="M3647.45-594.725l-3.226,6.411a.548.548,0,0,0,.025.533.546.546,0,0,0,.468.257l6.379-.067a.545.545,0,0,0,.459-.26.545.545,0,0,0,.023-.527l-3.153-6.345a.545.545,0,0,0-.487-.3.545.545,0,0,0-.488.3Z" transform="translate(-5332.251 3992.577)" fill="none" stroke="#33383f" stroke-miterlimit="10" stroke-width="1"/><path d="M3607.63-577.808l-3.23,6.408a.545.545,0,0,0,.024.534.545.545,0,0,0,.469.257l6.378-.067a.545.545,0,0,0,.459-.261.544.544,0,0,0,.023-.527L3608.6-577.8a.545.545,0,0,0-.482-.3.545.545,0,0,0-.488.293Z" transform="translate(-5331.398 3993.431)" fill="none" stroke="#33383f" stroke-miterlimit="10" stroke-width="1"/><path d="M3627.63-577.767l-3.226,6.411a.545.545,0,0,0,.024.534.545.545,0,0,0,.469.256l6.379-.067a.545.545,0,0,0,.459-.261.545.545,0,0,0,.023-.527l-3.153-6.344a.545.545,0,0,0-.487-.3A.545.545,0,0,0,3627.63-577.767Z" transform="translate(-5331.827 3993.433)" fill="none" stroke="#33383f" stroke-miterlimit="10" stroke-width="1"/><path d="M3647.63-577.727l-3.224,6.411a.545.545,0,0,0,.024.534.545.545,0,0,0,.469.256l6.378-.067a.544.544,0,0,0,.459-.26.544.544,0,0,0,.023-.527l-3.153-6.345a.545.545,0,0,0-.487-.3A.545.545,0,0,0,3647.63-577.727Z" transform="translate(-5332.255 3993.435)" fill="none" stroke="#33383f" stroke-miterlimit="10" stroke-width="1"/><path d="M3606.91-645.8l-3.226,6.411a.546.546,0,0,0,.024.534.545.545,0,0,0,.469.256l6.379-.066a.545.545,0,0,0,.459-.261.545.545,0,0,0,.023-.527l-3.153-6.345a.545.545,0,0,0-.487-.3.545.545,0,0,0-.488.3Z" transform="translate(-5272.668 3989.997)" fill="none" stroke="#33383f" stroke-miterlimit="10" stroke-width="1"/><path d="M3626.92-645.764l-3.225,6.412a.545.545,0,0,0,.024.534.545.545,0,0,0,.469.256l6.378-.067a.546.546,0,0,0,.459-.261.546.546,0,0,0,.024-.527l-3.153-6.345a.547.547,0,0,0-.487-.3.546.546,0,0,0-.489.3Z" transform="translate(-5273.097 3989.999)" fill="none" stroke="#33383f" stroke-miterlimit="10" stroke-width="1"/><path d="M3646.92-645.724l-3.226,6.412a.547.547,0,0,0,.026.533.546.546,0,0,0,.467.257l6.379-.067a.545.545,0,0,0,.459-.261.545.545,0,0,0,.023-.527l-3.153-6.344a.545.545,0,0,0-.486-.3.545.545,0,0,0-.488.3Z" transform="translate(-5276.462 3990.001)" fill="none" stroke="#33383f" stroke-miterlimit="10" stroke-width="1"/><path d="M3607.09-628.8l-3.225,6.411a.545.545,0,0,0,.024.534.545.545,0,0,0,.469.256l6.378-.066a.545.545,0,0,0,.459-.261.545.545,0,0,0,.023-.527l-3.153-6.345a.544.544,0,0,0-.486-.3.545.545,0,0,0-.488.3Z" transform="translate(-5272.672 3990.856)" fill="none" stroke="#33383f" stroke-miterlimit="10" stroke-width="1"/><path d="M3627.09-628.765l-3.226,6.412a.547.547,0,0,0,.026.533.546.546,0,0,0,.467.257l6.379-.067a.546.546,0,0,0,.458-.261.547.547,0,0,0,.024-.527l-3.153-6.344a.544.544,0,0,0-.486-.3.545.545,0,0,0-.488.3Z" transform="translate(-5273.101 3990.858)" fill="none" stroke="#33383f" stroke-miterlimit="10" stroke-width="1"/><path d="M3647.1-628.724l-3.225,6.411a.545.545,0,0,0,.024.534.545.545,0,0,0,.469.256l6.378-.067a.545.545,0,0,0,.459-.261.544.544,0,0,0,.023-.527l-3.153-6.344a.545.545,0,0,0-.487-.3A.545.545,0,0,0,3647.1-628.724Z" transform="translate(-5276.453 3990.86)" fill="none" stroke="#33383f" stroke-miterlimit="10" stroke-width="1"/><path d="M3607.27-611.8l-3.225,6.412a.543.543,0,0,0,.024.533.544.544,0,0,0,.469.256l6.378-.066a.546.546,0,0,0,.459-.261.547.547,0,0,0,.024-.527l-3.153-6.345a.546.546,0,0,0-.487-.3.546.546,0,0,0-.488.3Z" transform="translate(-5272.676 3991.714)" fill="none" stroke="#33383f" stroke-miterlimit="10" stroke-width="1"/><path d="M3627.27-611.766l-3.226,6.412a.547.547,0,0,0,.025.533.546.546,0,0,0,.468.257l6.379-.067a.545.545,0,0,0,.459-.261.545.545,0,0,0,.023-.527l-3.153-6.344a.545.545,0,0,0-.486-.3.545.545,0,0,0-.488.3Z" transform="translate(-5273.104 3991.716)" fill="none" stroke="#33383f" stroke-miterlimit="10" stroke-width="1"/><path d="M3647.27-611.725l-3.225,6.411a.545.545,0,0,0,.024.534.545.545,0,0,0,.469.256l6.378-.067a.545.545,0,0,0,.459-.26.545.545,0,0,0,.024-.527l-3.153-6.345a.546.546,0,0,0-.487-.3.546.546,0,0,0-.489.3Z" transform="translate(-5276.444 3991.718)" fill="none" stroke="#33383f" stroke-miterlimit="10" stroke-width="1"/><path d="M3607.45-594.807l-3.226,6.412a.546.546,0,0,0,.025.533.546.546,0,0,0,.468.257l6.379-.067a.547.547,0,0,0,.458-.261.547.547,0,0,0,.024-.527l-3.153-6.345a.545.545,0,0,0-.487-.3.545.545,0,0,0-.488.3Z" transform="translate(-5272.68 3992.573)" fill="none" stroke="#33383f" stroke-miterlimit="10" stroke-width="1"/><path d="M3627.45-594.767l-3.225,6.412a.546.546,0,0,0,.025.534.545.545,0,0,0,.469.256l6.378-.067a.545.545,0,0,0,.459-.261.545.545,0,0,0,.023-.527l-3.153-6.344a.545.545,0,0,0-.486-.3.545.545,0,0,0-.488.3Z" transform="translate(-5273.109 3992.575)" fill="none" stroke="#33383f" stroke-miterlimit="10" stroke-width="1"/><path d="M3647.45-594.725l-3.226,6.411a.548.548,0,0,0,.025.533.546.546,0,0,0,.468.257l6.379-.067a.545.545,0,0,0,.459-.26.545.545,0,0,0,.023-.527l-3.153-6.345a.545.545,0,0,0-.487-.3.545.545,0,0,0-.488.3Z" transform="translate(-5276.435 3992.577)" fill="none" stroke="#33383f" stroke-miterlimit="10" stroke-width="1"/><path d="M3607.63-577.808l-3.23,6.408a.545.545,0,0,0,.024.534.545.545,0,0,0,.469.257l6.378-.067a.545.545,0,0,0,.459-.261.544.544,0,0,0,.023-.527L3608.6-577.8a.545.545,0,0,0-.482-.3.545.545,0,0,0-.488.293Z" transform="translate(-5272.684 3993.431)" fill="none" stroke="#33383f" stroke-miterlimit="10" stroke-width="1"/><path d="M3627.63-577.767l-3.226,6.411a.545.545,0,0,0,.024.534.545.545,0,0,0,.469.256l6.379-.067a.545.545,0,0,0,.459-.261.545.545,0,0,0,.023-.527l-3.153-6.344a.545.545,0,0,0-.487-.3A.545.545,0,0,0,3627.63-577.767Z" transform="translate(-5273.112 3993.433)" fill="none" stroke="#33383f" stroke-miterlimit="10" stroke-width="1"/><path d="M3647.63-577.727l-3.224,6.411a.545.545,0,0,0,.024.534.545.545,0,0,0,.469.256l6.378-.067a.544.544,0,0,0,.459-.26.544.544,0,0,0,.023-.527l-3.153-6.345a.545.545,0,0,0-.487-.3A.545.545,0,0,0,3647.63-577.727Z" transform="translate(-5276.426 3993.435)" fill="none" stroke="#33383f" stroke-miterlimit="10" stroke-width="1"/><path d="M3606.91-645.8l-3.226,6.411a.546.546,0,0,0,.024.534.545.545,0,0,0,.469.256l6.379-.066a.545.545,0,0,0,.459-.261.545.545,0,0,0,.023-.527l-3.153-6.345a.545.545,0,0,0-.487-.3.545.545,0,0,0-.488.3Z" transform="translate(-5215.448 3989.997)" fill="none" stroke="#33383f" stroke-miterlimit="10" stroke-width="1"/><path d="M3626.92-645.764l-3.225,6.412a.545.545,0,0,0,.024.534.545.545,0,0,0,.469.256l6.378-.067a.546.546,0,0,0,.459-.261.546.546,0,0,0,.024-.527l-3.153-6.345a.547.547,0,0,0-.487-.3.546.546,0,0,0-.489.3Z" transform="translate(-5214.434 3989.999)" fill="none" stroke="#33383f" stroke-miterlimit="10" stroke-width="1"/><path d="M3607.09-628.8l-3.225,6.411a.545.545,0,0,0,.024.534.545.545,0,0,0,.469.256l6.378-.066a.545.545,0,0,0,.459-.261.545.545,0,0,0,.023-.527l-3.153-6.345a.544.544,0,0,0-.486-.3.545.545,0,0,0-.488.3Z" transform="translate(-5215.438 3990.856)" fill="none" stroke="#33383f" stroke-miterlimit="10" stroke-width="1"/><path d="M3627.09-628.765l-3.226,6.412a.547.547,0,0,0,.026.533.546.546,0,0,0,.467.257l6.379-.067a.546.546,0,0,0,.458-.261.547.547,0,0,0,.024-.527l-3.153-6.344a.544.544,0,0,0-.486-.3.545.545,0,0,0-.488.3Z" transform="translate(-5214.424 3990.858)" fill="none" stroke="#33383f" stroke-miterlimit="10" stroke-width="1"/><path d="M3607.27-611.8l-3.225,6.412a.543.543,0,0,0,.024.533.544.544,0,0,0,.469.256l6.378-.066a.546.546,0,0,0,.459-.261.547.547,0,0,0,.024-.527l-3.153-6.345a.546.546,0,0,0-.487-.3.546.546,0,0,0-.488.3Z" transform="translate(-5215.43 3991.714)" fill="none" stroke="#33383f" stroke-miterlimit="10" stroke-width="1"/><path d="M3627.27-611.766l-3.226,6.412a.547.547,0,0,0,.025.533.546.546,0,0,0,.468.257l6.379-.067a.545.545,0,0,0,.459-.261.545.545,0,0,0,.023-.527l-3.153-6.344a.545.545,0,0,0-.486-.3.545.545,0,0,0-.488.3Z" transform="translate(-5214.416 3991.716)" fill="none" stroke="#33383f" stroke-miterlimit="10" stroke-width="1"/><path d="M3607.45-594.807l-3.226,6.412a.546.546,0,0,0,.025.533.546.546,0,0,0,.468.257l6.379-.067a.547.547,0,0,0,.458-.261.547.547,0,0,0,.024-.527l-3.153-6.345a.545.545,0,0,0-.487-.3.545.545,0,0,0-.488.3Z" transform="translate(-5215.421 3992.573)" fill="none" stroke="#33383f" stroke-miterlimit="10" stroke-width="1"/><path d="M3627.45-594.767l-3.225,6.412a.546.546,0,0,0,.025.534.545.545,0,0,0,.469.256l6.378-.067a.545.545,0,0,0,.459-.261.545.545,0,0,0,.023-.527l-3.153-6.344a.545.545,0,0,0-.486-.3.545.545,0,0,0-.488.3Z" transform="translate(-5214.407 3992.575)" fill="none" stroke="#33383f" stroke-miterlimit="10" stroke-width="1"/><path d="M3607.63-577.808l-3.23,6.408a.545.545,0,0,0,.024.534.545.545,0,0,0,.469.257l6.378-.067a.545.545,0,0,0,.459-.261.544.544,0,0,0,.023-.527L3608.6-577.8a.545.545,0,0,0-.482-.3.545.545,0,0,0-.488.293Z" transform="translate(-5215.412 3993.431)" fill="none" stroke="#33383f" stroke-miterlimit="10" stroke-width="1"/><path d="M3627.63-577.767l-3.226,6.411a.545.545,0,0,0,.024.534.545.545,0,0,0,.469.256l6.379-.067a.545.545,0,0,0,.459-.261.545.545,0,0,0,.023-.527l-3.153-6.344a.545.545,0,0,0-.487-.3A.545.545,0,0,0,3627.63-577.767Z" transform="translate(-5214.397 3993.433)" fill="none" stroke="#33383f" stroke-miterlimit="10" stroke-width="1"/></g><g transform="translate(-2357.893 154.881)" opacity="0.08"><path d="M3626.92-645.764l-3.225,6.412a.545.545,0,0,0,.024.534.545.545,0,0,0,.469.256l6.378-.067a.546.546,0,0,0,.459-.261.546.546,0,0,0,.024-.527l-3.153-6.345a.547.547,0,0,0-.487-.3.546.546,0,0,0-.489.3Z" transform="translate(-5507.956 3989.999)" fill="none" stroke="#33383f" stroke-miterlimit="10" stroke-width="1"/><path d="M3646.92-645.724l-3.226,6.412a.547.547,0,0,0,.026.533.546.546,0,0,0,.467.257l6.379-.067a.545.545,0,0,0,.459-.261.545.545,0,0,0,.023-.527l-3.153-6.344a.545.545,0,0,0-.486-.3.545.545,0,0,0-.488.3Z" transform="translate(-5506.941 3990.001)" fill="none" stroke="#33383f" stroke-miterlimit="10" stroke-width="1"/><path d="M3627.09-628.765l-3.226,6.412a.547.547,0,0,0,.026.533.546.546,0,0,0,.467.257l6.379-.067a.546.546,0,0,0,.458-.261.547.547,0,0,0,.024-.527l-3.153-6.344a.544.544,0,0,0-.486-.3.545.545,0,0,0-.488.3Z" transform="translate(-5507.947 3990.858)" fill="none" stroke="#33383f" stroke-miterlimit="10" stroke-width="1"/><path d="M3647.1-628.724l-3.225,6.411a.545.545,0,0,0,.024.534.545.545,0,0,0,.469.256l6.378-.067a.545.545,0,0,0,.459-.261.544.544,0,0,0,.023-.527l-3.153-6.344a.545.545,0,0,0-.487-.3A.545.545,0,0,0,3647.1-628.724Z" transform="translate(-5506.933 3990.86)" fill="none" stroke="#33383f" stroke-miterlimit="10" stroke-width="1"/><path d="M3627.27-611.766l-3.226,6.412a.547.547,0,0,0,.025.533.546.546,0,0,0,.468.257l6.379-.067a.545.545,0,0,0,.459-.261.545.545,0,0,0,.023-.527l-3.153-6.344a.545.545,0,0,0-.486-.3.545.545,0,0,0-.488.3Z" transform="translate(-5507.938 3991.716)" fill="none" stroke="#33383f" stroke-miterlimit="10" stroke-width="1"/><path d="M3647.27-611.725l-3.225,6.411a.545.545,0,0,0,.024.534.545.545,0,0,0,.469.256l6.378-.067a.545.545,0,0,0,.459-.26.545.545,0,0,0,.024-.527l-3.153-6.345a.546.546,0,0,0-.487-.3.546.546,0,0,0-.489.3Z" transform="translate(-5506.923 3991.718)" fill="none" stroke="#33383f" stroke-miterlimit="10" stroke-width="1"/><path d="M3627.45-594.767l-3.225,6.412a.546.546,0,0,0,.025.534.545.545,0,0,0,.469.256l6.378-.067a.545.545,0,0,0,.459-.261.545.545,0,0,0,.023-.527l-3.153-6.344a.545.545,0,0,0-.486-.3.545.545,0,0,0-.488.3Z" transform="translate(-5507.929 3992.575)" fill="none" stroke="#33383f" stroke-miterlimit="10" stroke-width="1"/><path d="M3647.45-594.725l-3.226,6.411a.548.548,0,0,0,.025.533.546.546,0,0,0,.468.257l6.379-.067a.545.545,0,0,0,.459-.26.545.545,0,0,0,.023-.527l-3.153-6.345a.545.545,0,0,0-.487-.3.545.545,0,0,0-.488.3Z" transform="translate(-5506.914 3992.577)" fill="none" stroke="#33383f" stroke-miterlimit="10" stroke-width="1"/><path d="M3627.63-577.767l-3.226,6.411a.545.545,0,0,0,.024.534.545.545,0,0,0,.469.256l6.379-.067a.545.545,0,0,0,.459-.261.545.545,0,0,0,.023-.527l-3.153-6.344a.545.545,0,0,0-.487-.3A.545.545,0,0,0,3627.63-577.767Z" transform="translate(-5507.92 3993.433)" fill="none" stroke="#33383f" stroke-miterlimit="10" stroke-width="1"/><path d="M3647.63-577.727l-3.224,6.411a.545.545,0,0,0,.024.534.545.545,0,0,0,.469.256l6.378-.067a.544.544,0,0,0,.459-.26.544.544,0,0,0,.023-.527l-3.153-6.345a.545.545,0,0,0-.487-.3A.545.545,0,0,0,3647.63-577.727Z" transform="translate(-5506.905 3993.435)" fill="none" stroke="#33383f" stroke-miterlimit="10" stroke-width="1"/><path d="M3606.91-645.8l-3.226,6.411a.546.546,0,0,0,.024.534.545.545,0,0,0,.469.256l6.379-.066a.545.545,0,0,0,.459-.261.545.545,0,0,0,.023-.527l-3.153-6.345a.545.545,0,0,0-.487-.3.545.545,0,0,0-.488.3Z" transform="translate(-5445.928 3989.997)" fill="none" stroke="#33383f" stroke-miterlimit="10" stroke-width="1"/><path d="M3626.92-645.764l-3.225,6.412a.545.545,0,0,0,.024.534.545.545,0,0,0,.469.256l6.378-.067a.546.546,0,0,0,.459-.261.546.546,0,0,0,.024-.527l-3.153-6.345a.547.547,0,0,0-.487-.3.546.546,0,0,0-.489.3Z" transform="translate(-5449.241 3989.999)" fill="none" stroke="#33383f" stroke-miterlimit="10" stroke-width="1"/><path d="M3646.92-645.724l-3.226,6.412a.547.547,0,0,0,.026.533.546.546,0,0,0,.467.257l6.379-.067a.545.545,0,0,0,.459-.261.545.545,0,0,0,.023-.527l-3.153-6.344a.545.545,0,0,0-.486-.3.545.545,0,0,0-.488.3Z" transform="translate(-5449.669 3990.001)" fill="none" stroke="#33383f" stroke-miterlimit="10" stroke-width="1"/><path d="M3607.09-628.8l-3.225,6.411a.545.545,0,0,0,.024.534.545.545,0,0,0,.469.256l6.378-.066a.545.545,0,0,0,.459-.261.545.545,0,0,0,.023-.527l-3.153-6.345a.544.544,0,0,0-.486-.3.545.545,0,0,0-.488.3Z" transform="translate(-5445.918 3990.856)" fill="none" stroke="#33383f" stroke-miterlimit="10" stroke-width="1"/><path d="M3627.09-628.765l-3.226,6.412a.547.547,0,0,0,.026.533.546.546,0,0,0,.467.257l6.379-.067a.546.546,0,0,0,.458-.261.547.547,0,0,0,.024-.527l-3.153-6.344a.544.544,0,0,0-.486-.3.545.545,0,0,0-.488.3Z" transform="translate(-5449.245 3990.858)" fill="none" stroke="#33383f" stroke-miterlimit="10" stroke-width="1"/><path d="M3647.1-628.724l-3.225,6.411a.545.545,0,0,0,.024.534.545.545,0,0,0,.469.256l6.378-.067a.545.545,0,0,0,.459-.261.544.544,0,0,0,.023-.527l-3.153-6.344a.545.545,0,0,0-.487-.3A.545.545,0,0,0,3647.1-628.724Z" transform="translate(-5449.673 3990.86)" fill="none" stroke="#33383f" stroke-miterlimit="10" stroke-width="1"/><path d="M3607.27-611.8l-3.225,6.412a.543.543,0,0,0,.024.533.544.544,0,0,0,.469.256l6.378-.066a.546.546,0,0,0,.459-.261.547.547,0,0,0,.024-.527l-3.153-6.345a.546.546,0,0,0-.487-.3.546.546,0,0,0-.488.3Z" transform="translate(-5445.91 3991.714)" fill="none" stroke="#33383f" stroke-miterlimit="10" stroke-width="1"/><path d="M3627.27-611.766l-3.226,6.412a.547.547,0,0,0,.025.533.546.546,0,0,0,.468.257l6.379-.067a.545.545,0,0,0,.459-.261.545.545,0,0,0,.023-.527l-3.153-6.344a.545.545,0,0,0-.486-.3.545.545,0,0,0-.488.3Z" transform="translate(-5449.249 3991.716)" fill="none" stroke="#33383f" stroke-miterlimit="10" stroke-width="1"/><path d="M3647.27-611.725l-3.225,6.411a.545.545,0,0,0,.024.534.545.545,0,0,0,.469.256l6.378-.067a.545.545,0,0,0,.459-.26.545.545,0,0,0,.024-.527l-3.153-6.345a.546.546,0,0,0-.487-.3.546.546,0,0,0-.489.3Z" transform="translate(-5449.677 3991.718)" fill="none" stroke="#33383f" stroke-miterlimit="10" stroke-width="1"/><path d="M3607.45-594.807l-3.226,6.412a.546.546,0,0,0,.025.533.546.546,0,0,0,.468.257l6.379-.067a.547.547,0,0,0,.458-.261.547.547,0,0,0,.024-.527l-3.153-6.345a.545.545,0,0,0-.487-.3.545.545,0,0,0-.488.3Z" transform="translate(-5445.901 3992.573)" fill="none" stroke="#33383f" stroke-miterlimit="10" stroke-width="1"/><path d="M3627.45-594.767l-3.225,6.412a.546.546,0,0,0,.025.534.545.545,0,0,0,.469.256l6.378-.067a.545.545,0,0,0,.459-.261.545.545,0,0,0,.023-.527l-3.153-6.344a.545.545,0,0,0-.486-.3.545.545,0,0,0-.488.3Z" transform="translate(-5449.253 3992.575)" fill="none" stroke="#33383f" stroke-miterlimit="10" stroke-width="1"/><path d="M3647.45-594.725l-3.226,6.411a.548.548,0,0,0,.025.533.546.546,0,0,0,.468.257l6.379-.067a.545.545,0,0,0,.459-.26.545.545,0,0,0,.023-.527l-3.153-6.345a.545.545,0,0,0-.487-.3.545.545,0,0,0-.488.3Z" transform="translate(-5449.681 3992.577)" fill="none" stroke="#33383f" stroke-miterlimit="10" stroke-width="1"/><path d="M3607.63-577.808l-3.23,6.408a.545.545,0,0,0,.024.534.545.545,0,0,0,.469.257l6.378-.067a.545.545,0,0,0,.459-.261.544.544,0,0,0,.023-.527L3608.6-577.8a.545.545,0,0,0-.482-.3.545.545,0,0,0-.488.293Z" transform="translate(-5445.892 3993.431)" fill="none" stroke="#33383f" stroke-miterlimit="10" stroke-width="1"/><path d="M3627.63-577.767l-3.226,6.411a.545.545,0,0,0,.024.534.545.545,0,0,0,.469.256l6.379-.067a.545.545,0,0,0,.459-.261.545.545,0,0,0,.023-.527l-3.153-6.344a.545.545,0,0,0-.487-.3A.545.545,0,0,0,3627.63-577.767Z" transform="translate(-5449.257 3993.433)" fill="none" stroke="#33383f" stroke-miterlimit="10" stroke-width="1"/><path d="M3647.63-577.727l-3.224,6.411a.545.545,0,0,0,.024.534.545.545,0,0,0,.469.256l6.378-.067a.544.544,0,0,0,.459-.26.544.544,0,0,0,.023-.527l-3.153-6.345a.545.545,0,0,0-.487-.3A.545.545,0,0,0,3647.63-577.727Z" transform="translate(-5449.685 3993.435)" fill="none" stroke="#33383f" stroke-miterlimit="10" stroke-width="1"/><path d="M3606.91-645.8l-3.226,6.411a.546.546,0,0,0,.024.534.545.545,0,0,0,.469.256l6.379-.066a.545.545,0,0,0,.459-.261.545.545,0,0,0,.023-.527l-3.153-6.345a.545.545,0,0,0-.487-.3.545.545,0,0,0-.488.3Z" transform="translate(-5390.098 3989.997)" fill="none" stroke="#33383f" stroke-miterlimit="10" stroke-width="1"/><path d="M3626.92-645.764l-3.225,6.412a.545.545,0,0,0,.024.534.545.545,0,0,0,.469.256l6.378-.067a.546.546,0,0,0,.459-.261.546.546,0,0,0,.024-.527l-3.153-6.345a.547.547,0,0,0-.487-.3.546.546,0,0,0-.489.3Z" transform="translate(-5390.527 3989.999)" fill="none" stroke="#33383f" stroke-miterlimit="10" stroke-width="1"/><path d="M3646.92-645.724l-3.226,6.412a.547.547,0,0,0,.026.533.546.546,0,0,0,.467.257l6.379-.067a.545.545,0,0,0,.459-.261.545.545,0,0,0,.023-.527l-3.153-6.344a.545.545,0,0,0-.486-.3.545.545,0,0,0-.488.3Z" transform="translate(-5390.955 3990.001)" fill="none" stroke="#33383f" stroke-miterlimit="10" stroke-width="1"/><path d="M3607.09-628.8l-3.225,6.411a.545.545,0,0,0,.024.534.545.545,0,0,0,.469.256l6.378-.066a.545.545,0,0,0,.459-.261.545.545,0,0,0,.023-.527l-3.153-6.345a.544.544,0,0,0-.486-.3.545.545,0,0,0-.488.3Z" transform="translate(-5390.102 3990.856)" fill="none" stroke="#33383f" stroke-miterlimit="10" stroke-width="1"/><path d="M3627.09-628.765l-3.226,6.412a.547.547,0,0,0,.026.533.546.546,0,0,0,.467.257l6.379-.067a.546.546,0,0,0,.458-.261.547.547,0,0,0,.024-.527l-3.153-6.344a.544.544,0,0,0-.486-.3.545.545,0,0,0-.488.3Z" transform="translate(-5390.53 3990.858)" fill="none" stroke="#33383f" stroke-miterlimit="10" stroke-width="1"/><path d="M3647.1-628.724l-3.225,6.411a.545.545,0,0,0,.024.534.545.545,0,0,0,.469.256l6.378-.067a.545.545,0,0,0,.459-.261.544.544,0,0,0,.023-.527l-3.153-6.344a.545.545,0,0,0-.487-.3A.545.545,0,0,0,3647.1-628.724Z" transform="translate(-5390.958 3990.86)" fill="none" stroke="#33383f" stroke-miterlimit="10" stroke-width="1"/><path d="M3607.27-611.8l-3.225,6.412a.543.543,0,0,0,.024.533.544.544,0,0,0,.469.256l6.378-.066a.546.546,0,0,0,.459-.261.547.547,0,0,0,.024-.527l-3.153-6.345a.546.546,0,0,0-.487-.3.546.546,0,0,0-.488.3Z" transform="translate(-5390.105 3991.714)" fill="none" stroke="#33383f" stroke-miterlimit="10" stroke-width="1"/><path d="M3627.27-611.766l-3.226,6.412a.547.547,0,0,0,.025.533.546.546,0,0,0,.468.257l6.379-.067a.545.545,0,0,0,.459-.261.545.545,0,0,0,.023-.527l-3.153-6.344a.545.545,0,0,0-.486-.3.545.545,0,0,0-.488.3Z" transform="translate(-5390.534 3991.716)" fill="none" stroke="#33383f" stroke-miterlimit="10" stroke-width="1"/><path d="M3647.27-611.725l-3.225,6.411a.545.545,0,0,0,.024.534.545.545,0,0,0,.469.256l6.378-.067a.545.545,0,0,0,.459-.26.545.545,0,0,0,.024-.527l-3.153-6.345a.546.546,0,0,0-.487-.3.546.546,0,0,0-.489.3Z" transform="translate(-5390.963 3991.718)" fill="none" stroke="#33383f" stroke-miterlimit="10" stroke-width="1"/><path d="M3607.45-594.807l-3.226,6.412a.546.546,0,0,0,.025.533.546.546,0,0,0,.468.257l6.379-.067a.547.547,0,0,0,.458-.261.547.547,0,0,0,.024-.527l-3.153-6.345a.545.545,0,0,0-.487-.3.545.545,0,0,0-.488.3Z" transform="translate(-5390.11 3992.573)" fill="none" stroke="#33383f" stroke-miterlimit="10" stroke-width="1"/><path d="M3627.45-594.767l-3.225,6.412a.546.546,0,0,0,.025.534.545.545,0,0,0,.469.256l6.378-.067a.545.545,0,0,0,.459-.261.545.545,0,0,0,.023-.527l-3.153-6.344a.545.545,0,0,0-.486-.3.545.545,0,0,0-.488.3Z" transform="translate(-5390.538 3992.575)" fill="none" stroke="#33383f" stroke-miterlimit="10" stroke-width="1"/><path d="M3647.45-594.725l-3.226,6.411a.548.548,0,0,0,.025.533.546.546,0,0,0,.468.257l6.379-.067a.545.545,0,0,0,.459-.26.545.545,0,0,0,.023-.527l-3.153-6.345a.545.545,0,0,0-.487-.3.545.545,0,0,0-.488.3Z" transform="translate(-5390.966 3992.577)" fill="none" stroke="#33383f" stroke-miterlimit="10" stroke-width="1"/><path d="M3607.63-577.808l-3.23,6.408a.545.545,0,0,0,.024.534.545.545,0,0,0,.469.257l6.378-.067a.545.545,0,0,0,.459-.261.544.544,0,0,0,.023-.527L3608.6-577.8a.545.545,0,0,0-.482-.3.545.545,0,0,0-.488.293Z" transform="translate(-5390.113 3993.431)" fill="none" stroke="#33383f" stroke-miterlimit="10" stroke-width="1"/><path d="M3627.63-577.767l-3.226,6.411a.545.545,0,0,0,.024.534.545.545,0,0,0,.469.256l6.379-.067a.545.545,0,0,0,.459-.261.545.545,0,0,0,.023-.527l-3.153-6.344a.545.545,0,0,0-.487-.3A.545.545,0,0,0,3627.63-577.767Z" transform="translate(-5390.542 3993.433)" fill="none" stroke="#33383f" stroke-miterlimit="10" stroke-width="1"/><path d="M3647.63-577.727l-3.224,6.411a.545.545,0,0,0,.024.534.545.545,0,0,0,.469.256l6.378-.067a.544.544,0,0,0,.459-.26.544.544,0,0,0,.023-.527l-3.153-6.345a.545.545,0,0,0-.487-.3A.545.545,0,0,0,3647.63-577.727Z" transform="translate(-5390.97 3993.435)" fill="none" stroke="#33383f" stroke-miterlimit="10" stroke-width="1"/><path d="M3606.91-645.8l-3.226,6.411a.546.546,0,0,0,.024.534.545.545,0,0,0,.469.256l6.379-.066a.545.545,0,0,0,.459-.261.545.545,0,0,0,.023-.527l-3.153-6.345a.545.545,0,0,0-.487-.3.545.545,0,0,0-.488.3Z" transform="translate(-5331.383 3989.997)" fill="none" stroke="#33383f" stroke-miterlimit="10" stroke-width="1"/><path d="M3626.92-645.764l-3.225,6.412a.545.545,0,0,0,.024.534.545.545,0,0,0,.469.256l6.378-.067a.546.546,0,0,0,.459-.261.546.546,0,0,0,.024-.527l-3.153-6.345a.547.547,0,0,0-.487-.3.546.546,0,0,0-.489.3Z" transform="translate(-5331.812 3989.999)" fill="none" stroke="#33383f" stroke-miterlimit="10" stroke-width="1"/><path d="M3646.92-645.724l-3.226,6.412a.547.547,0,0,0,.026.533.546.546,0,0,0,.467.257l6.379-.067a.545.545,0,0,0,.459-.261.545.545,0,0,0,.023-.527l-3.153-6.344a.545.545,0,0,0-.486-.3.545.545,0,0,0-.488.3Z" transform="translate(-5332.24 3990.001)" fill="none" stroke="#33383f" stroke-miterlimit="10" stroke-width="1"/><path d="M3607.09-628.8l-3.225,6.411a.545.545,0,0,0,.024.534.545.545,0,0,0,.469.256l6.378-.066a.545.545,0,0,0,.459-.261.545.545,0,0,0,.023-.527l-3.153-6.345a.544.544,0,0,0-.486-.3.545.545,0,0,0-.488.3Z" transform="translate(-5331.387 3990.856)" fill="none" stroke="#33383f" stroke-miterlimit="10" stroke-width="1"/><path d="M3627.09-628.765l-3.226,6.412a.547.547,0,0,0,.026.533.546.546,0,0,0,.467.257l6.379-.067a.546.546,0,0,0,.458-.261.547.547,0,0,0,.024-.527l-3.153-6.344a.544.544,0,0,0-.486-.3.545.545,0,0,0-.488.3Z" transform="translate(-5331.815 3990.858)" fill="none" stroke="#33383f" stroke-miterlimit="10" stroke-width="1"/><path d="M3647.1-628.724l-3.225,6.411a.545.545,0,0,0,.024.534.545.545,0,0,0,.469.256l6.378-.067a.545.545,0,0,0,.459-.261.544.544,0,0,0,.023-.527l-3.153-6.344a.545.545,0,0,0-.487-.3A.545.545,0,0,0,3647.1-628.724Z" transform="translate(-5332.244 3990.86)" fill="none" stroke="#33383f" stroke-miterlimit="10" stroke-width="1"/><path d="M3607.27-611.8l-3.225,6.412a.543.543,0,0,0,.024.533.544.544,0,0,0,.469.256l6.378-.066a.546.546,0,0,0,.459-.261.547.547,0,0,0,.024-.527l-3.153-6.345a.546.546,0,0,0-.487-.3.546.546,0,0,0-.488.3Z" transform="translate(-5331.391 3991.714)" fill="none" stroke="#33383f" stroke-miterlimit="10" stroke-width="1"/><path d="M3627.27-611.766l-3.226,6.412a.547.547,0,0,0,.025.533.546.546,0,0,0,.468.257l6.379-.067a.545.545,0,0,0,.459-.261.545.545,0,0,0,.023-.527l-3.153-6.344a.545.545,0,0,0-.486-.3.545.545,0,0,0-.488.3Z" transform="translate(-5331.819 3991.716)" fill="none" stroke="#33383f" stroke-miterlimit="10" stroke-width="1"/><path d="M3647.27-611.725l-3.225,6.411a.545.545,0,0,0,.024.534.545.545,0,0,0,.469.256l6.378-.067a.545.545,0,0,0,.459-.26.545.545,0,0,0,.024-.527l-3.153-6.345a.546.546,0,0,0-.487-.3.546.546,0,0,0-.489.3Z" transform="translate(-5332.248 3991.718)" fill="none" stroke="#33383f" stroke-miterlimit="10" stroke-width="1"/><path d="M3607.45-594.807l-3.226,6.412a.546.546,0,0,0,.025.533.546.546,0,0,0,.468.257l6.379-.067a.547.547,0,0,0,.458-.261.547.547,0,0,0,.024-.527l-3.153-6.345a.545.545,0,0,0-.487-.3.545.545,0,0,0-.488.3Z" transform="translate(-5331.395 3992.573)" fill="none" stroke="#33383f" stroke-miterlimit="10" stroke-width="1"/><path d="M3627.45-594.767l-3.225,6.412a.546.546,0,0,0,.025.534.545.545,0,0,0,.469.256l6.378-.067a.545.545,0,0,0,.459-.261.545.545,0,0,0,.023-.527l-3.153-6.344a.545.545,0,0,0-.486-.3.545.545,0,0,0-.488.3Z" transform="translate(-5331.824 3992.575)" fill="none" stroke="#33383f" stroke-miterlimit="10" stroke-width="1"/><path d="M3647.45-594.725l-3.226,6.411a.548.548,0,0,0,.025.533.546.546,0,0,0,.468.257l6.379-.067a.545.545,0,0,0,.459-.26.545.545,0,0,0,.023-.527l-3.153-6.345a.545.545,0,0,0-.487-.3.545.545,0,0,0-.488.3Z" transform="translate(-5332.251 3992.577)" fill="none" stroke="#33383f" stroke-miterlimit="10" stroke-width="1"/><path d="M3607.63-577.808l-3.23,6.408a.545.545,0,0,0,.024.534.545.545,0,0,0,.469.257l6.378-.067a.545.545,0,0,0,.459-.261.544.544,0,0,0,.023-.527L3608.6-577.8a.545.545,0,0,0-.482-.3.545.545,0,0,0-.488.293Z" transform="translate(-5331.398 3993.431)" fill="none" stroke="#33383f" stroke-miterlimit="10" stroke-width="1"/><path d="M3627.63-577.767l-3.226,6.411a.545.545,0,0,0,.024.534.545.545,0,0,0,.469.256l6.379-.067a.545.545,0,0,0,.459-.261.545.545,0,0,0,.023-.527l-3.153-6.344a.545.545,0,0,0-.487-.3A.545.545,0,0,0,3627.63-577.767Z" transform="translate(-5331.827 3993.433)" fill="none" stroke="#33383f" stroke-miterlimit="10" stroke-width="1"/><path d="M3647.63-577.727l-3.224,6.411a.545.545,0,0,0,.024.534.545.545,0,0,0,.469.256l6.378-.067a.544.544,0,0,0,.459-.26.544.544,0,0,0,.023-.527l-3.153-6.345a.545.545,0,0,0-.487-.3A.545.545,0,0,0,3647.63-577.727Z" transform="translate(-5332.255 3993.435)" fill="none" stroke="#33383f" stroke-miterlimit="10" stroke-width="1"/><path d="M3606.91-645.8l-3.226,6.411a.546.546,0,0,0,.024.534.545.545,0,0,0,.469.256l6.379-.066a.545.545,0,0,0,.459-.261.545.545,0,0,0,.023-.527l-3.153-6.345a.545.545,0,0,0-.487-.3.545.545,0,0,0-.488.3Z" transform="translate(-5272.668 3989.997)" fill="none" stroke="#33383f" stroke-miterlimit="10" stroke-width="1"/><path d="M3626.92-645.764l-3.225,6.412a.545.545,0,0,0,.024.534.545.545,0,0,0,.469.256l6.378-.067a.546.546,0,0,0,.459-.261.546.546,0,0,0,.024-.527l-3.153-6.345a.547.547,0,0,0-.487-.3.546.546,0,0,0-.489.3Z" transform="translate(-5273.097 3989.999)" fill="none" stroke="#33383f" stroke-miterlimit="10" stroke-width="1"/><path d="M3646.92-645.724l-3.226,6.412a.547.547,0,0,0,.026.533.546.546,0,0,0,.467.257l6.379-.067a.545.545,0,0,0,.459-.261.545.545,0,0,0,.023-.527l-3.153-6.344a.545.545,0,0,0-.486-.3.545.545,0,0,0-.488.3Z" transform="translate(-5276.462 3990.001)" fill="none" stroke="#33383f" stroke-miterlimit="10" stroke-width="1"/><path d="M3607.09-628.8l-3.225,6.411a.545.545,0,0,0,.024.534.545.545,0,0,0,.469.256l6.378-.066a.545.545,0,0,0,.459-.261.545.545,0,0,0,.023-.527l-3.153-6.345a.544.544,0,0,0-.486-.3.545.545,0,0,0-.488.3Z" transform="translate(-5272.672 3990.856)" fill="none" stroke="#33383f" stroke-miterlimit="10" stroke-width="1"/><path d="M3627.09-628.765l-3.226,6.412a.547.547,0,0,0,.026.533.546.546,0,0,0,.467.257l6.379-.067a.546.546,0,0,0,.458-.261.547.547,0,0,0,.024-.527l-3.153-6.344a.544.544,0,0,0-.486-.3.545.545,0,0,0-.488.3Z" transform="translate(-5273.101 3990.858)" fill="none" stroke="#33383f" stroke-miterlimit="10" stroke-width="1"/><path d="M3647.1-628.724l-3.225,6.411a.545.545,0,0,0,.024.534.545.545,0,0,0,.469.256l6.378-.067a.545.545,0,0,0,.459-.261.544.544,0,0,0,.023-.527l-3.153-6.344a.545.545,0,0,0-.487-.3A.545.545,0,0,0,3647.1-628.724Z" transform="translate(-5276.453 3990.86)" fill="none" stroke="#33383f" stroke-miterlimit="10" stroke-width="1"/><path d="M3607.27-611.8l-3.225,6.412a.543.543,0,0,0,.024.533.544.544,0,0,0,.469.256l6.378-.066a.546.546,0,0,0,.459-.261.547.547,0,0,0,.024-.527l-3.153-6.345a.546.546,0,0,0-.487-.3.546.546,0,0,0-.488.3Z" transform="translate(-5272.676 3991.714)" fill="none" stroke="#33383f" stroke-miterlimit="10" stroke-width="1"/><path d="M3627.27-611.766l-3.226,6.412a.547.547,0,0,0,.025.533.546.546,0,0,0,.468.257l6.379-.067a.545.545,0,0,0,.459-.261.545.545,0,0,0,.023-.527l-3.153-6.344a.545.545,0,0,0-.486-.3.545.545,0,0,0-.488.3Z" transform="translate(-5273.104 3991.716)" fill="none" stroke="#33383f" stroke-miterlimit="10" stroke-width="1"/><path d="M3647.27-611.725l-3.225,6.411a.545.545,0,0,0,.024.534.545.545,0,0,0,.469.256l6.378-.067a.545.545,0,0,0,.459-.26.545.545,0,0,0,.024-.527l-3.153-6.345a.546.546,0,0,0-.487-.3.546.546,0,0,0-.489.3Z" transform="translate(-5276.444 3991.718)" fill="none" stroke="#33383f" stroke-miterlimit="10" stroke-width="1"/><path d="M3607.45-594.807l-3.226,6.412a.546.546,0,0,0,.025.533.546.546,0,0,0,.468.257l6.379-.067a.547.547,0,0,0,.458-.261.547.547,0,0,0,.024-.527l-3.153-6.345a.545.545,0,0,0-.487-.3.545.545,0,0,0-.488.3Z" transform="translate(-5272.68 3992.573)" fill="none" stroke="#33383f" stroke-miterlimit="10" stroke-width="1"/><path d="M3627.45-594.767l-3.225,6.412a.546.546,0,0,0,.025.534.545.545,0,0,0,.469.256l6.378-.067a.545.545,0,0,0,.459-.261.545.545,0,0,0,.023-.527l-3.153-6.344a.545.545,0,0,0-.486-.3.545.545,0,0,0-.488.3Z" transform="translate(-5273.109 3992.575)" fill="none" stroke="#33383f" stroke-miterlimit="10" stroke-width="1"/><path d="M3647.45-594.725l-3.226,6.411a.548.548,0,0,0,.025.533.546.546,0,0,0,.468.257l6.379-.067a.545.545,0,0,0,.459-.26.545.545,0,0,0,.023-.527l-3.153-6.345a.545.545,0,0,0-.487-.3.545.545,0,0,0-.488.3Z" transform="translate(-5276.435 3992.577)" fill="none" stroke="#33383f" stroke-miterlimit="10" stroke-width="1"/><path d="M3607.63-577.808l-3.23,6.408a.545.545,0,0,0,.024.534.545.545,0,0,0,.469.257l6.378-.067a.545.545,0,0,0,.459-.261.544.544,0,0,0,.023-.527L3608.6-577.8a.545.545,0,0,0-.482-.3.545.545,0,0,0-.488.293Z" transform="translate(-5272.684 3993.431)" fill="none" stroke="#33383f" stroke-miterlimit="10" stroke-width="1"/><path d="M3627.63-577.767l-3.226,6.411a.545.545,0,0,0,.024.534.545.545,0,0,0,.469.256l6.379-.067a.545.545,0,0,0,.459-.261.545.545,0,0,0,.023-.527l-3.153-6.344a.545.545,0,0,0-.487-.3A.545.545,0,0,0,3627.63-577.767Z" transform="translate(-5273.112 3993.433)" fill="none" stroke="#33383f" stroke-miterlimit="10" stroke-width="1"/><path d="M3647.63-577.727l-3.224,6.411a.545.545,0,0,0,.024.534.545.545,0,0,0,.469.256l6.378-.067a.544.544,0,0,0,.459-.26.544.544,0,0,0,.023-.527l-3.153-6.345a.545.545,0,0,0-.487-.3A.545.545,0,0,0,3647.63-577.727Z" transform="translate(-5276.426 3993.435)" fill="none" stroke="#33383f" stroke-miterlimit="10" stroke-width="1"/><path d="M3606.91-645.8l-3.226,6.411a.546.546,0,0,0,.024.534.545.545,0,0,0,.469.256l6.379-.066a.545.545,0,0,0,.459-.261.545.545,0,0,0,.023-.527l-3.153-6.345a.545.545,0,0,0-.487-.3.545.545,0,0,0-.488.3Z" transform="translate(-5215.448 3989.997)" fill="none" stroke="#33383f" stroke-miterlimit="10" stroke-width="1"/><path d="M3607.09-628.8l-3.225,6.411a.545.545,0,0,0,.024.534.545.545,0,0,0,.469.256l6.378-.066a.545.545,0,0,0,.459-.261.545.545,0,0,0,.023-.527l-3.153-6.345a.544.544,0,0,0-.486-.3.545.545,0,0,0-.488.3Z" transform="translate(-5215.438 3990.856)" fill="none" stroke="#33383f" stroke-miterlimit="10" stroke-width="1"/><path d="M3607.27-611.8l-3.225,6.412a.543.543,0,0,0,.024.533.544.544,0,0,0,.469.256l6.378-.066a.546.546,0,0,0,.459-.261.547.547,0,0,0,.024-.527l-3.153-6.345a.546.546,0,0,0-.487-.3.546.546,0,0,0-.488.3Z" transform="translate(-5215.43 3991.714)" fill="none" stroke="#33383f" stroke-miterlimit="10" stroke-width="1"/><path d="M3607.45-594.807l-3.226,6.412a.546.546,0,0,0,.025.533.546.546,0,0,0,.468.257l6.379-.067a.547.547,0,0,0,.458-.261.547.547,0,0,0,.024-.527l-3.153-6.345a.545.545,0,0,0-.487-.3.545.545,0,0,0-.488.3Z" transform="translate(-5215.421 3992.573)" fill="none" stroke="#33383f" stroke-miterlimit="10" stroke-width="1"/><path d="M3607.63-577.808l-3.23,6.408a.545.545,0,0,0,.024.534.545.545,0,0,0,.469.257l6.378-.067a.545.545,0,0,0,.459-.261.544.544,0,0,0,.023-.527L3608.6-577.8a.545.545,0,0,0-.482-.3.545.545,0,0,0-.488.293Z" transform="translate(-5215.412 3993.431)" fill="none" stroke="#33383f" stroke-miterlimit="10" stroke-width="1"/></g><rect width="202" height="40" transform="translate(-4383 3522)" fill="#d2eeff"/></g><g transform="translate(1769.324 985)"><g transform="translate(-275.032 -872)"><g transform="translate(1011.412 1014.966)"><g transform="translate(-0.412 0.034)"><rect width="66.17" height="21.642" transform="translate(72.901 3.149)" fill="none"/><rect width="205" height="29" fill="none" stroke="#33383f" stroke-width="1" stroke-dasharray="4"/></g><path d="M12.51,0H10.586L3.74-11l-.059.02V0H1.758V-14.219H3.682L10.527-3.242l.059-.02V-14.219H12.51ZM24.463-6.592H17.949v5.078h7.51V0H16.025V-14.219h9.326v1.514h-7.4v4.6h6.514Zm6.1,1.67.264,1.777.059.01.381-1.787,2.607-9.3h1.7l2.627,9.3L38.594-3.1h.059l.283-1.826,2.119-9.3h1.924L39.551,0H37.832l-2.8-9.863-.254-1.279h-.059l-.244,1.279L31.621,0H29.9L26.484-14.219H28.4Zm24.863.361.02.059a4.286,4.286,0,0,1-1.406,3.354A5.362,5.362,0,0,1,50.225.205,5.015,5.015,0,0,1,46.294-1.5,6.285,6.285,0,0,1,44.775-5.84V-8.369a6.3,6.3,0,0,1,1.519-4.341,5.008,5.008,0,0,1,3.931-1.714,5.52,5.52,0,0,1,3.838,1.284,4.245,4.245,0,0,1,1.387,3.4l-.02.059H53.584a3.173,3.173,0,0,0-.879-2.363,3.376,3.376,0,0,0-2.48-.869,3.03,3.03,0,0,0-2.568,1.3,5.277,5.277,0,0,0-.957,3.22v2.547a5.31,5.31,0,0,0,.957,3.239,3.03,3.03,0,0,0,2.568,1.3,3.388,3.388,0,0,0,2.48-.864,3.2,3.2,0,0,0,.879-2.388Zm13.008-9.658V-4.58a4.322,4.322,0,0,1-1.509,3.555,6.038,6.038,0,0,1-3.94,1.23,5.687,5.687,0,0,1-3.8-1.235,4.391,4.391,0,0,1-1.46-3.55v-9.639h1.924v9.631a3.136,3.136,0,0,0,.918,2.444,3.462,3.462,0,0,0,2.422.834,3.783,3.783,0,0,0,2.554-.834,3.045,3.045,0,0,0,.972-2.444v-9.631ZM79.326-3.58a2.094,2.094,0,0,0-.732-1.626,6.176,6.176,0,0,0-2.6-1.1,8.6,8.6,0,0,1-3.521-1.586,3.279,3.279,0,0,1-1.265-2.633,3.454,3.454,0,0,1,1.362-2.78,5.391,5.391,0,0,1,3.53-1.116,5.254,5.254,0,0,1,3.716,1.279,3.775,3.775,0,0,1,1.333,2.969l-.02.059H79.3a2.639,2.639,0,0,0-.825-2.021A3.34,3.34,0,0,0,76.1-12.91a3.317,3.317,0,0,0-2.2.649,2.115,2.115,0,0,0-.767,1.694,1.867,1.867,0,0,0,.83,1.548,7.877,7.877,0,0,0,2.7,1.089,7.691,7.691,0,0,1,3.418,1.641A3.511,3.511,0,0,1,81.25-3.6,3.279,3.279,0,0,1,79.844-.84,6,6,0,0,1,76.172.205,6.354,6.354,0,0,1,72.407-.952,3.488,3.488,0,0,1,70.82-4.043l.02-.059h1.836a2.389,2.389,0,0,0,1.006,2.08,4.2,4.2,0,0,0,2.49.713,3.872,3.872,0,0,0,2.3-.612A1.94,1.94,0,0,0,79.326-3.58Zm14.355-9.125h-4.57V0H87.188V-12.705H82.627v-1.514H93.682ZM104.385,0H95.166V-1.327l4.658-5.167a13.064,13.064,0,0,0,1.694-2.217,3.487,3.487,0,0,0,.444-1.68,2.667,2.667,0,0,0-.62-1.792A2.055,2.055,0,0,0,99.7-12.91a2.822,2.822,0,0,0-2.173.757,3.016,3.016,0,0,0-.7,2.124H94.98l-.02-.059a4,4,0,0,1,1.221-3.086,4.794,4.794,0,0,1,3.516-1.25,4.165,4.165,0,0,1,3.052,1.118,3.821,3.821,0,0,1,1.138,2.847A4.552,4.552,0,0,1,103.2-8.13a14.969,14.969,0,0,1-1.929,2.5l-3.74,4.063.02.049h6.836Zm2.6-6.416.82-7.8h7.119v1.709h-5.488l-.469,3.994a4.435,4.435,0,0,1,1-.552,3.7,3.7,0,0,1,1.274-.239,3.826,3.826,0,0,1,3.091,1.279,5.147,5.147,0,0,1,1.128,3.5,5,5,0,0,1-1.147,3.438,4.227,4.227,0,0,1-3.345,1.3,4.583,4.583,0,0,1-3.008-.986,3.414,3.414,0,0,1-1.152-2.9l.02-.059h1.738a2.36,2.36,0,0,0,.669,1.795,2.41,2.41,0,0,0,1.733.637,2.271,2.271,0,0,0,1.895-.858,3.71,3.71,0,0,0,.674-2.35,3.541,3.541,0,0,0-.684-2.243,2.257,2.257,0,0,0-1.885-.878,3.02,3.02,0,0,0-1.641.342,1.95,1.95,0,0,0-.742,1.045Z" transform="translate(80.296 22.034)" fill="#33383f"/><path d="M1.992-8.364v5.292a2.239,2.239,0,0,0,.546,1.656,2.065,2.065,0,0,0,1.518.54,2.048,2.048,0,0,0,1.506-.54,2.239,2.239,0,0,0,.546-1.656V-8.364H7.2v5.28a3.415,3.415,0,0,1-.42,1.758A2.636,2.636,0,0,1,5.646-.264a3.608,3.608,0,0,1-1.6.348,3.608,3.608,0,0,1-1.6-.348A2.6,2.6,0,0,1,1.314-1.326,3.455,3.455,0,0,1,.9-3.084v-5.28ZM11.676.084A3.577,3.577,0,0,1,10.194-.21a2.47,2.47,0,0,1-1.026-.816,2.091,2.091,0,0,1-.384-1.206H9.948a1.533,1.533,0,0,0,.486.99,1.744,1.744,0,0,0,1.242.4,1.815,1.815,0,0,0,1.23-.39,1.266,1.266,0,0,0,.45-1,1.137,1.137,0,0,0-.264-.78,1.687,1.687,0,0,0-.66-.456A10.313,10.313,0,0,0,11.364-3.8a9.406,9.406,0,0,1-1.326-.432,2.136,2.136,0,0,1-.852-.678,1.992,1.992,0,0,1-.354-1.242A2.152,2.152,0,0,1,9.18-7.368a2.267,2.267,0,0,1,.978-.816A3.443,3.443,0,0,1,11.6-8.472a3.029,3.029,0,0,1,1.926.588,2.172,2.172,0,0,1,.846,1.56h-1.2a1.3,1.3,0,0,0-.5-.846A1.79,1.79,0,0,0,11.5-7.536a1.7,1.7,0,0,0-1.116.354,1.209,1.209,0,0,0-.432.99,1.073,1.073,0,0,0,.258.744,1.663,1.663,0,0,0,.636.438q.378.15,1.062.342a9.974,9.974,0,0,1,1.332.45,2.222,2.222,0,0,1,.864.684,1.989,1.989,0,0,1,.36,1.254,2.2,2.2,0,0,1-.324,1.152,2.382,2.382,0,0,1-.96.876,3.168,3.168,0,0,1-1.5.336Zm5.484-7.56v2.8h3.048v.9H17.16V-.9h3.408V0h-4.5V-8.376h4.5v.9Zm7.86,3.288a4.4,4.4,0,0,1,.552-2.2,4.01,4.01,0,0,1,1.506-1.53A4.152,4.152,0,0,1,29.2-8.472a4.3,4.3,0,0,1,2.388.66A3.782,3.782,0,0,1,33.072-5.94H31.764a2.626,2.626,0,0,0-1-1.164A2.9,2.9,0,0,0,29.2-7.512a3.05,3.05,0,0,0-1.572.408,2.853,2.853,0,0,0-1.092,1.158,3.713,3.713,0,0,0-.4,1.758,3.686,3.686,0,0,0,.4,1.746,2.853,2.853,0,0,0,1.092,1.158A3.05,3.05,0,0,0,29.2-.876a2.933,2.933,0,0,0,1.566-.4,2.589,2.589,0,0,0,1-1.158h1.308a3.755,3.755,0,0,1-1.49,1.852A4.327,4.327,0,0,1,29.2.072a4.188,4.188,0,0,1-2.118-.546,3.978,3.978,0,0,1-1.506-1.518A4.368,4.368,0,0,1,25.02-4.188ZM38.484.084A4.221,4.221,0,0,1,36.36-.462a4,4,0,0,1-1.518-1.524,4.364,4.364,0,0,1-.558-2.2,4.364,4.364,0,0,1,.558-2.2A4,4,0,0,1,36.36-7.914a4.221,4.221,0,0,1,2.124-.546,4.244,4.244,0,0,1,2.136.546A3.966,3.966,0,0,1,42.132-6.4a4.392,4.392,0,0,1,.552,2.208,4.392,4.392,0,0,1-.552,2.208A3.966,3.966,0,0,1,40.62-.462a4.244,4.244,0,0,1-2.136.546Zm0-.948a3.082,3.082,0,0,0,1.578-.408,2.872,2.872,0,0,0,1.1-1.164,3.676,3.676,0,0,0,.4-1.752,3.667,3.667,0,0,0-.4-1.758,2.893,2.893,0,0,0-1.1-1.158,3.073,3.073,0,0,0-1.584-.408A3.073,3.073,0,0,0,36.9-7.1a2.894,2.894,0,0,0-1.1,1.158,3.667,3.667,0,0,0-.4,1.758,3.676,3.676,0,0,0,.4,1.752,2.872,2.872,0,0,0,1.1,1.164,3.082,3.082,0,0,0,1.584.4Zm8.244-7.5a5.164,5.164,0,0,1,2.37.51A3.584,3.584,0,0,1,50.634-6.4a4.474,4.474,0,0,1,.534,2.232,4.44,4.44,0,0,1-.534,2.226A3.522,3.522,0,0,1,49.1-.5a5.268,5.268,0,0,1-2.37.5h-2.6V-8.364Zm0,7.464A3.334,3.334,0,0,0,49.2-1.758a3.266,3.266,0,0,0,.852-2.406A3.333,3.333,0,0,0,49.194-6.6a3.3,3.3,0,0,0-2.466-.876H45.216V-.9ZM53.7-7.476v2.8h3.048v.9H53.7V-.9h3.408V0h-4.5V-8.376h4.5v.9ZM62.316.072a.718.718,0,0,1-.528-.216.718.718,0,0,1-.216-.528.718.718,0,0,1,.216-.528.718.718,0,0,1,.528-.216.685.685,0,0,1,.51.216.729.729,0,0,1,.21.528.729.729,0,0,1-.21.528.685.685,0,0,1-.51.216Zm0-5.136a.718.718,0,0,1-.528-.216.718.718,0,0,1-.216-.528.718.718,0,0,1,.216-.528.718.718,0,0,1,.528-.216.685.685,0,0,1,.51.216.729.729,0,0,1,.21.528.729.729,0,0,1-.21.528A.685.685,0,0,1,62.316-5.064Z" transform="translate(10.588 19.034)" fill="#33383f"/></g><g transform="translate(1006.032 1023.744)"><path d="M-1585.64,4.566a2.047,2.047,0,0,0-.5,2.685l2.547,5.466c-1.067,1.594-.754,3.166-1.277,3.167-.408,0-.32-.3-1.383-.255a1.732,1.732,0,0,0-1.7,1.73,1.8,1.8,0,0,0,1.837,1.668,1.969,1.969,0,0,0,2.134-1.542c.182-1.015-.581-2.81,1.277-3.657,1.429.625,1.438,1.739,1.37,2.746a2.122,2.122,0,0,0,1.257,2.236,2.09,2.09,0,0,0,2.647-.884,1.7,1.7,0,0,0-.113-1.506,1.7,1.7,0,0,0-1.268-.822c-.976-.161-1.432.4-1.787.186-.267-.162-.116-1.193-1.14-3.028l2.553-5.932a1.913,1.913,0,0,0-.667-2.325l-2.839,6.15-2.94-6.084Zm-1.516,12.2c.59-.864,2.2-.8,2.516.1.351.81-.616,1.848-1.7,1.592a1.118,1.118,0,0,1-.87-.621,1.118,1.118,0,0,1,.05-1.068Zm6.583-.053a1.527,1.527,0,0,1,1.313-.6,1.527,1.527,0,0,1,1.227.763,1.122,1.122,0,0,1-.1,1.025,1.122,1.122,0,0,1-.892.514c-1.077.123-2.047-.9-1.557-1.7Z" transform="translate(1587.968 -4.5)" fill="#33383f"/></g></g><g transform="translate(-108 25.123)"><path d="M6.242-15.044v4.436a2.156,2.156,0,0,1-.677,1.676,2.572,2.572,0,0,1-1.8.618,2.59,2.59,0,0,1-1.81-.609,2.166,2.166,0,0,1-.67-1.689v-4.432H2.431V-10.6a1.411,1.411,0,0,0,.337,1.017,1.316,1.316,0,0,0,.994.351q1.331,0,1.331-1.4v-4.4Zm2.385,4.176v2.462H7.473v-6.639h2.54a2.568,2.568,0,0,1,1.767.58,1.949,1.949,0,0,1,.654,1.534,1.884,1.884,0,0,1-.641,1.52A2.692,2.692,0,0,1,10-10.867Zm0-.93h1.386a1.365,1.365,0,0,0,.939-.29,1.064,1.064,0,0,0,.324-.837,1.148,1.148,0,0,0-.328-.859,1.265,1.265,0,0,0-.9-.331H8.627Zm9.611-2.316h-2.07v5.708H15.024v-5.708H12.972v-.93h5.266Zm6.041,2.562a4.073,4.073,0,0,1-.337,1.712,2.551,2.551,0,0,1-.964,1.131,2.652,2.652,0,0,1-1.443.394A2.659,2.659,0,0,1,20.1-8.708a2.59,2.59,0,0,1-.976-1.124,3.946,3.946,0,0,1-.349-1.682v-.374a4.038,4.038,0,0,1,.344-1.714,2.587,2.587,0,0,1,.971-1.138,2.644,2.644,0,0,1,1.439-.394,2.667,2.667,0,0,1,1.439.39,2.554,2.554,0,0,1,.969,1.122,4.029,4.029,0,0,1,.347,1.7ZM23.126-11.9a2.9,2.9,0,0,0-.417-1.692,1.365,1.365,0,0,0-1.183-.588,1.361,1.361,0,0,0-1.17.586,2.846,2.846,0,0,0-.431,1.657v.383a2.88,2.88,0,0,0,.426,1.692,1.373,1.373,0,0,0,1.183.6,1.357,1.357,0,0,0,1.179-.584,2.942,2.942,0,0,0,.413-1.7Z" transform="translate(608.715 118.894)" fill="#33383f"/><path d="M-50.705-18.332-48.7-36.969h19.855v5.332H-43.57L-44.586-22.8A11.414,11.414,0,0,1-38.8-24.273,10.3,10.3,0,0,1-30.583-20.9q2.933,3.377,2.933,9.09A12.317,12.317,0,0,1-30.9-2.831Q-34.15.508-39.812.508a12.423,12.423,0,0,1-8.417-2.882,10.419,10.419,0,0,1-3.618-7.6h5.967a6.516,6.516,0,0,0,1.93,4.126,5.87,5.87,0,0,0,4.113,1.435,5.3,5.3,0,0,0,4.431-2.031,8.767,8.767,0,0,0,1.587-5.535,7.747,7.747,0,0,0-1.752-5.345A6.127,6.127,0,0,0-40.4-19.3a8.026,8.026,0,0,0-2.844.444,8.054,8.054,0,0,0-2.539,1.739Zm52,2.768q0,7.973-2.983,12.022T-10.766.508q-5.992,0-9.026-3.948T-22.9-15.133v-6.4q0-7.973,2.983-11.959t9.1-3.986q6.068,0,9.052,3.885T1.3-21.964Zm-6.17-6.906q0-5.2-1.422-7.63a4.853,4.853,0,0,0-4.52-2.425,4.849,4.849,0,0,0-4.443,2.3q-1.422,2.3-1.5,7.173v8.379q0,5.18,1.447,7.719a4.861,4.861,0,0,0,4.545,2.539A4.776,4.776,0,0,0-6.373-6.767q1.422-2.349,1.5-7.351ZM6.5-29.859a7.419,7.419,0,0,1,2.158-5.5A7.681,7.681,0,0,1,14.32-37.5a7.7,7.7,0,0,1,5.7,2.146,7.6,7.6,0,0,1,2.146,5.624v1.83a7.368,7.368,0,0,1-2.146,5.459,7.663,7.663,0,0,1-5.649,2.133A7.906,7.906,0,0,1,8.722-22.4,7.394,7.394,0,0,1,6.5-28.057Zm4.316,1.945a4.072,4.072,0,0,0,.978,2.839,3.307,3.307,0,0,0,2.577,1.082,3.239,3.239,0,0,0,2.539-1.082,4.257,4.257,0,0,0,.965-2.94v-1.858a4.119,4.119,0,0,0-.978-2.851,3.289,3.289,0,0,0-2.577-1.1,3.2,3.2,0,0,0-2.552,1.107,4.314,4.314,0,0,0-.952,2.915ZM24.273-9.064a7.268,7.268,0,0,1,2.209-5.51,7.834,7.834,0,0,1,5.637-2.107,7.824,7.824,0,0,1,5.649,2.107,7.513,7.513,0,0,1,2.2,5.688v1.8a7.426,7.426,0,0,1-2.12,5.446A7.619,7.619,0,0,1,32.17.508a7.844,7.844,0,0,1-5.726-2.12,7.472,7.472,0,0,1-2.171-5.6ZM28.59-7.109a4.049,4.049,0,0,0,1,2.831,3.324,3.324,0,0,0,2.577,1.1,3.222,3.222,0,0,0,2.552-1.054,4.332,4.332,0,0,0,.927-2.958v-1.9a4.013,4.013,0,0,0-.99-2.844A3.31,3.31,0,0,0,32.119-13a3.3,3.3,0,0,0-2.552,1.066,4.2,4.2,0,0,0-.978,2.945ZM15.641-2.768,12.467-4.6,30.52-33.49l3.174,1.828Z" transform="translate(660 152.877)" fill="#ff6464"/><path d="M-13.254-17.52a22.682,22.682,0,0,1-1.879,9.534,14.207,14.207,0,0,1-5.37,6.3,14.771,14.771,0,0,1-8.036,2.2,14.806,14.806,0,0,1-8.011-2.2,14.425,14.425,0,0,1-5.434-6.259,21.972,21.972,0,0,1-1.942-9.369V-19.4a22.487,22.487,0,0,1,1.917-9.547A14.408,14.408,0,0,1-36.6-35.28a14.724,14.724,0,0,1,8.011-2.2,14.854,14.854,0,0,1,8.011,2.171,14.225,14.225,0,0,1,5.4,6.246,22.439,22.439,0,0,1,1.93,9.483Zm-6.424-1.93q0-6.145-2.323-9.42a7.6,7.6,0,0,0-6.589-3.275,7.578,7.578,0,0,0-6.51,3.263q-2.349,3.263-2.4,9.229v2.133q0,6.094,2.374,9.42a7.644,7.644,0,0,0,6.589,3.326,7.555,7.555,0,0,0,6.563-3.25q2.3-3.25,2.3-9.5Zm34.125,3.783H-.432V0H-6.855V-36.969H16.631v5.18H-.432V-20.8H14.447Zm28.564,0H28.133V0H21.709V-36.969H45.2v5.18H28.133V-20.8H43.012Z" transform="translate(760 152.877)" fill="#33383f"/></g><g transform="translate(177.56 -293.792)"><g transform="translate(276.423 409.435)"><path d="M492.358,570.268l-4.453-4.453,4.453-4.454,4.454,4.454Zm-3.087-4.453,3.087,3.087,3.088-3.087-3.088-3.088Z" transform="translate(-373.043 -493.29)" fill="#33383f"/><g transform="translate(17 26.661)"><path d="M390.857,587.377a.511.511,0,0,1-.512-.51h0V579.48a.511.511,0,0,1,.511-.511h0a.511.511,0,0,1,.512.51h0v7.387a.511.511,0,0,1-.511.511Z" transform="translate(-386.651 -578.968)" fill="#ff6464"/><path d="M389.9,588.334h-7.387a.512.512,0,0,1-.512-.512h0a.512.512,0,0,1,.512-.512H389.9a.512.512,0,0,1,.512.512h0A.512.512,0,0,1,389.9,588.334Z" transform="translate(-381.999 -583.619)" fill="#ff6464"/></g><path d="M625.381,611.923a3.586,3.586,0,1,1,3.586-3.586,3.586,3.586,0,0,1-3.586,3.586Zm0-6.418a2.831,2.831,0,1,0,2.831,2.831A2.831,2.831,0,0,0,625.381,605.5Z" transform="translate(-358.781 -593.559)" fill="#33383f"/></g></g><g transform="translate(-10 4.872)"><g transform="translate(2364.146 -3350.295)"><g transform="translate(-143.029 402.286)"><rect width="121" height="33.744" rx="3" transform="translate(-1240.441 3084.137)" fill="#ff6464"/><path d="M-32.55-4.166A4.621,4.621,0,0,1-34.062-.971,5.154,5.154,0,0,1-37.569.176a4.99,4.99,0,0,1-2.694-.725,4.759,4.759,0,0,1-1.8-2.061,7.438,7.438,0,0,1-.659-3.1v-1.2a7.491,7.491,0,0,1,.642-3.19,4.835,4.835,0,0,1,1.841-2.127,5.136,5.136,0,0,1,2.773-.747,4.946,4.946,0,0,1,3.41,1.147,4.793,4.793,0,0,1,1.5,3.248h-2.215a3.161,3.161,0,0,0-.8-1.991,2.658,2.658,0,0,0-1.894-.611,2.6,2.6,0,0,0-2.228,1.06,5.3,5.3,0,0,0-.8,3.11v1.135a5.62,5.62,0,0,0,.743,3.167,2.464,2.464,0,0,0,2.175,1.091A2.875,2.875,0,0,0-35.6-2.206a3.071,3.071,0,0,0,.835-1.96ZM-28.5,0h-2.136V-13.5H-28.5Zm8.007,0a3.3,3.3,0,0,1-.246-.888,3.325,3.325,0,0,1-2.5,1.063,3.355,3.355,0,0,1-2.338-.817,2.615,2.615,0,0,1-.905-2.021A2.7,2.7,0,0,1-25.348-5a5.473,5.473,0,0,1,3.23-.813h1.31v-.624a1.666,1.666,0,0,0-.413-1.182,1.638,1.638,0,0,0-1.257-.444,1.881,1.881,0,0,0-1.2.365,1.129,1.129,0,0,0-.466.927H-26.28a2.37,2.37,0,0,1,.519-1.463A3.455,3.455,0,0,1-24.346-9.3a4.955,4.955,0,0,1,1.991-.387,3.99,3.99,0,0,1,2.663.839,2.993,2.993,0,0,1,1.02,2.36V-2.2a4.861,4.861,0,0,0,.36,2.048V0ZM-22.84-1.538a2.429,2.429,0,0,0,1.191-.308,2.055,2.055,0,0,0,.839-.826V-4.465h-1.151a3.148,3.148,0,0,0-1.784.413,1.338,1.338,0,0,0-.6,1.169,1.248,1.248,0,0,0,.409.98,1.583,1.583,0,0,0,1.1.365ZM-14.164,0H-16.3V-9.51h2.136Zm-2.268-11.979a1.133,1.133,0,0,1,.312-.817,1.179,1.179,0,0,1,.892-.325,1.193,1.193,0,0,1,.9.325,1.125,1.125,0,0,1,.316.817,1.1,1.1,0,0,1-.316.8,1.2,1.2,0,0,1-.9.321,1.188,1.188,0,0,1-.892-.321,1.107,1.107,0,0,1-.311-.8Zm6.6,2.47.062.993a3.422,3.422,0,0,1,2.743-1.17,2.629,2.629,0,0,1,2.61,1.459A3.373,3.373,0,0,1-1.5-9.686a2.965,2.965,0,0,1,2.342.87A3.831,3.831,0,0,1,1.63-6.249V0H-.5V-6.187A1.891,1.891,0,0,0-.9-7.515a1.731,1.731,0,0,0-1.31-.422,1.778,1.778,0,0,0-1.19.392,2.063,2.063,0,0,0-.646,1.024L-4.039,0H-6.174V-6.258a1.523,1.523,0,0,0-.448-1.257,1.523,1.523,0,0,0-1.266-.422,1.88,1.88,0,0,0-1.82,1.046V0h-2.136V-9.51ZM18.664,0H16.44l-5.7-9.079V0H8.512V-12.8h2.224l5.722,9.114V-12.8h2.206Zm2.021-4.843a5.607,5.607,0,0,1,.554-2.518A4.044,4.044,0,0,1,22.8-9.084a4.383,4.383,0,0,1,2.3-.6A4.154,4.154,0,0,1,28.22-8.445a4.874,4.874,0,0,1,1.3,3.287l.009.5a5.658,5.658,0,0,1-.541,2.514A4,4,0,0,1,27.439-.431a4.415,4.415,0,0,1-2.325.606,4.125,4.125,0,0,1-3.221-1.34,5.133,5.133,0,0,1-1.208-3.573Zm2.136.185a3.832,3.832,0,0,0,.606,2.3,1.971,1.971,0,0,0,1.688.831A1.95,1.95,0,0,0,26.8-2.373a4.232,4.232,0,0,0,.6-2.47,3.782,3.782,0,0,0-.62-2.285,1.979,1.979,0,0,0-1.68-.844,1.96,1.96,0,0,0-1.661.831,4.152,4.152,0,0,0-.618,2.483ZM39.687-2.944,41.2-9.51h2.083L40.689,0H38.931L36.892-6.53l-2,6.53H33.13l-2.6-9.51h2.083l1.538,6.5L36.1-9.51h1.608Z" transform="translate(-1179.441 3107.137)" fill="#fff"/></g></g><path d="M6.885-7.611H4.143V0H3.023V-7.611H.287v-.92h6.6Zm.867,5.32A2,2,0,0,1,8.1-3.422a5.223,5.223,0,0,1,1.31-1.2,5.655,5.655,0,0,1-.762-1.113,2,2,0,0,1-.193-.838A2.011,2.011,0,0,1,9.023-8.1a2.158,2.158,0,0,1,1.559-.551,2.1,2.1,0,0,1,1.453.513,1.658,1.658,0,0,1,.574,1.292,1.823,1.823,0,0,1-.261.952,3.388,3.388,0,0,1-.911.917l-.627.463,1.9,2.268a3.6,3.6,0,0,0,.4-1.693h.979a4.085,4.085,0,0,1-.721,2.479L14.584,0h-1.3l-.568-.674A2.97,2.97,0,0,1,11.7-.085a3.6,3.6,0,0,1-1.187.2,2.932,2.932,0,0,1-2-.662,2.208,2.208,0,0,1-.761-1.744Zm2.76,1.523a2.282,2.282,0,0,0,1.576-.656l-2.08-2.49-.193.141a1.951,1.951,0,0,0-.979,1.482,1.439,1.439,0,0,0,.448,1.107,1.734,1.734,0,0,0,1.228.416ZM9.533-6.609A2.461,2.461,0,0,0,10.225-5.2l.691-.486a1.84,1.84,0,0,0,.545-.536,1.222,1.222,0,0,0,.146-.618.838.838,0,0,0-.293-.653,1.069,1.069,0,0,0-.738-.261.955.955,0,0,0-.762.325,1.213,1.213,0,0,0-.281.82Zm12.352,3.9a3.139,3.139,0,0,1-1,2.089A3.274,3.274,0,0,1,18.65.117,3.006,3.006,0,0,1,16.228-.967a4.361,4.361,0,0,1-.911-2.9v-.82a4.861,4.861,0,0,1,.425-2.092,3.173,3.173,0,0,1,1.2-1.386,3.353,3.353,0,0,1,1.8-.483,3.083,3.083,0,0,1,2.18.759,3.176,3.176,0,0,1,.955,2.1H20.754a2.451,2.451,0,0,0-.636-1.481,1.924,1.924,0,0,0-1.368-.458,2.013,2.013,0,0,0-1.69.8,3.661,3.661,0,0,0-.612,2.269v.827a3.764,3.764,0,0,0,.58,2.211A1.874,1.874,0,0,0,18.65-.8a2.165,2.165,0,0,0,1.438-.425A2.357,2.357,0,0,0,20.753-2.7Zm9.217.475H27.527L26.725,0h-1.16l3.258-8.531h.984L33.07,0H31.916Zm-3.234-.92h2.9l-1.453-3.99ZM39.4-3.1a3.8,3.8,0,0,1-.662,2.332,2.122,2.122,0,0,1-1.793.885,2.325,2.325,0,0,1-1.816-.732V2.438h-1.08V-6.34h.99l.053.7a2.233,2.233,0,0,1,1.84-.82A2.162,2.162,0,0,1,38.74-5.6a3.838,3.838,0,0,1,.66,2.4Zm-1.08-.123a2.8,2.8,0,0,0-.457-1.693,1.472,1.472,0,0,0-1.254-.621,1.593,1.593,0,0,0-1.477.873v3.029a1.6,1.6,0,0,0,1.488.867,1.465,1.465,0,0,0,1.239-.618,3.058,3.058,0,0,0,.461-1.837Zm7.816.123a3.8,3.8,0,0,1-.662,2.332,2.122,2.122,0,0,1-1.793.885,2.325,2.325,0,0,1-1.816-.732V2.438H40.781V-6.34h.99l.053.7a2.233,2.233,0,0,1,1.84-.82,2.162,2.162,0,0,1,1.808.861,3.838,3.838,0,0,1,.665,2.4Zm-1.084-.123A2.8,2.8,0,0,0,44.6-4.916a1.472,1.472,0,0,0-1.254-.621,1.593,1.593,0,0,0-1.477.873v3.029a1.6,1.6,0,0,0,1.488.867A1.465,1.465,0,0,0,44.6-1.386a3.058,3.058,0,0,0,.457-1.837ZM48.691,0H47.607V-9h1.084ZM52.5-1.588,53.977-6.34h1.16L52.588.979Q52,2.561,50.707,2.561L50.5,2.543l-.4-.076V1.588l.293.023a1.442,1.442,0,0,0,.858-.223,1.611,1.611,0,0,0,.507-.814L52-.07,49.734-6.34h1.184Zm4.717-4.175-1.77-.527.27-.884,1.77.656-.053-2.014h.9l-.059,2.043,1.74-.644.27.89-1.8.533,1.16,1.588-.727.551-1.09-1.687L56.771-3.612l-.732-.533Z" transform="translate(1011.389 183.407)" fill="#33383f"/></g><g transform="translate(43.125 -10.188) rotate(4.012)"><g transform="translate(299.322 96.555) rotate(4.992)"><path d="M43.2,1.413H0V18.75L86.264,38.478V9.848L43.2,0Z" transform="translate(0 26.863)" fill="#d64a4a"/><path d="M0,16.935,8.513,29.871,0,45.566,85.129,28.631V0Z" transform="translate(1.135 36.71)" fill="#ff6464"/><path d="M120.528,0,0,23.9V45.613l120.528-23.9-8.69-7.981Z" fill="#ff6464"/><g clip-path="url(#b)"><g transform="translate(9.425 8.978)"><path d="M4.006,12.58a3.971,3.971,0,0,1-1.937-.962A3.57,3.57,0,0,1,1.011,9.7L4.17,9.1a1.558,1.558,0,0,0,.665.943,1.532,1.532,0,0,0,1.109.157,1.658,1.658,0,0,0,.984-.5,1.034,1.034,0,0,0,.221-.914A1.016,1.016,0,0,0,6.7,8.092a2.5,2.5,0,0,0-.839-.344A12.267,12.267,0,0,0,4.52,7.554a13.915,13.915,0,0,1-2.065-.362A3.618,3.618,0,0,1,.968,6.361,3.052,3.052,0,0,1,.077,4.606,3.25,3.25,0,0,1,.8,1.707,5.154,5.154,0,0,1,3.828.132,5.214,5.214,0,0,1,7.257.477a3.511,3.511,0,0,1,1.83,2.43l-3.211.612a1.28,1.28,0,0,0-.611-.846A1.557,1.557,0,0,0,4.177,2.53a1.3,1.3,0,0,0-.813.452,1.051,1.051,0,0,0-.173.887,1.04,1.04,0,0,0,.731.814,9.243,9.243,0,0,0,1.871.381,16.372,16.372,0,0,1,2.063.4,3.722,3.722,0,0,1,1.477.816,2.887,2.887,0,0,1,.879,1.685,3.571,3.571,0,0,1-.169,1.993A3.775,3.775,0,0,1,8.765,11.6a5.35,5.35,0,0,1-2.282.956,6.376,6.376,0,0,1-2.478.022" transform="translate(0 16.077)" fill="#fff"/><path d="M3.421,3.234,3.89,5.7l3.974-.757L8.3,7.232,4.327,7.99l.509,2.673,4.495-.857.453,2.378L2.322,13.6,0,1.422,7.463,0l.453,2.378Z" transform="translate(10.994 13.602)" fill="#fff"/><path d="M7.972,9.929,3.425,10.8l-.319,2.291L0,13.678,2.087.655,5.523,0l6.73,11.343-3.141.6Zm-1.2-2.146L4.413,3.611,3.77,8.356Z" transform="translate(22.496 11.78)" fill="#fff"/><path d="M4.006,12.58a3.97,3.97,0,0,1-1.937-.962A3.569,3.569,0,0,1,1.011,9.7L4.17,9.1a1.558,1.558,0,0,0,.665.943,1.532,1.532,0,0,0,1.109.157,1.658,1.658,0,0,0,.984-.5,1.034,1.034,0,0,0,.221-.914A1.016,1.016,0,0,0,6.7,8.092a2.5,2.5,0,0,0-.839-.344A12.272,12.272,0,0,0,4.52,7.554a13.937,13.937,0,0,1-2.065-.362A3.619,3.619,0,0,1,.968,6.361,3.051,3.051,0,0,1,.077,4.606,3.25,3.25,0,0,1,.8,1.707,5.154,5.154,0,0,1,3.828.132,5.214,5.214,0,0,1,7.257.477a3.511,3.511,0,0,1,1.83,2.43l-3.211.612a1.28,1.28,0,0,0-.611-.846A1.557,1.557,0,0,0,4.177,2.53a1.3,1.3,0,0,0-.813.452,1.051,1.051,0,0,0-.173.887,1.04,1.04,0,0,0,.731.814,9.242,9.242,0,0,0,1.871.381,16.388,16.388,0,0,1,2.063.4,3.721,3.721,0,0,1,1.477.816,2.886,2.886,0,0,1,.879,1.685,3.572,3.572,0,0,1-.169,1.993A3.777,3.777,0,0,1,8.766,11.6a5.35,5.35,0,0,1-2.282.956,6.376,6.376,0,0,1-2.478.022" transform="translate(34.623 9.48)" fill="#fff"/><path d="M4.281,12.406a6.074,6.074,0,0,1-2.7-1.8A6.343,6.343,0,0,1,.127,7.55a6.3,6.3,0,0,1,.23-3.371,6.1,6.1,0,0,1,1.85-2.655,6.474,6.474,0,0,1,3-1.4,6.474,6.474,0,0,1,3.3.2,5.97,5.97,0,0,1,2.68,1.792A6.4,6.4,0,0,1,12.623,5.17a6.4,6.4,0,0,1-.22,3.378,6.029,6.029,0,0,1-1.831,2.66,6.423,6.423,0,0,1-2.989,1.4,6.472,6.472,0,0,1-3.3-.2M9.216,8.48A3.756,3.756,0,0,0,9.6,5.744a3.749,3.749,0,0,0-1.367-2.41,3.057,3.057,0,0,0-2.518-.518,3.092,3.092,0,0,0-2.17,1.4,3.741,3.741,0,0,0-.384,2.753,3.748,3.748,0,0,0,1.367,2.41A3.078,3.078,0,0,0,7.067,9.9,3.043,3.043,0,0,0,9.216,8.48" transform="translate(46.141 7.029)" fill="#fff"/><path d="M13.221,12.183l-2.968.566L3.857,6.18l1.432,7.515-2.968.566L0,2.077l2.968-.566,6.4,6.6L7.931.566,10.9,0Z" transform="translate(59.849 3.638)" fill="#fff"/><path d="M7.973,9.929,3.426,10.8l-.319,2.291L0,13.678,2.087.655,5.523,0l6.73,11.343-3.141.6Zm-1.2-2.145L4.413,3.611,3.77,8.355Z" transform="translate(75.013 1.773)" fill="#fff"/><path d="M4.853,9.893,8.74,9.152l.436,2.291L2.322,12.749,0,.566,2.968,0Z" transform="translate(86.871)" fill="#fff"/></g><g transform="translate(14.61 46.068)"><path d="M5.215,15.112a7.4,7.4,0,0,1-3.287-2.189A7.725,7.725,0,0,1,.155,9.2a7.67,7.67,0,0,1,.28-4.11A7.425,7.425,0,0,1,2.689,1.857,7.886,7.886,0,0,1,6.341.153a7.884,7.884,0,0,1,4.022.241,7.27,7.27,0,0,1,3.264,2.182A7.8,7.8,0,0,1,15.376,6.3a7.79,7.79,0,0,1-.267,4.115,7.345,7.345,0,0,1-2.231,3.24,7.825,7.825,0,0,1-3.641,1.7,7.883,7.883,0,0,1-4.022-.241m6.012-4.782A4.576,4.576,0,0,0,11.7,7a4.568,4.568,0,0,0-1.666-2.936A3.725,3.725,0,0,0,6.965,3.43,3.766,3.766,0,0,0,4.322,5.138a4.557,4.557,0,0,0-.467,3.353A4.566,4.566,0,0,0,5.52,11.428a3.749,3.749,0,0,0,3.088.627,3.707,3.707,0,0,0,2.618-1.726" transform="translate(0 9.911)" fill="#fff"/><path d="M9.661,0l.552,2.9L4.167,4.048l.6,3.129,4.524-.862.536,2.812L5.3,9.989l1.144,6-3.615.689L0,1.841Z" transform="translate(16.697 6.469)" fill="#fff"/><path d="M9.661,0l.552,2.9L4.167,4.048l.6,3.129,4.524-.862.536,2.812L5.3,9.989l1.144,6-3.615.689L0,1.841Z" transform="translate(28.98 4.129)" fill="#fff"/><path d="M4.167,3.939l.572,3,4.841-.92.532,2.791-4.841.922.62,3.256,5.475-1.043.552,2.9-9.09,1.732L0,1.732,9.09,0l.552,2.9Z" transform="translate(41.262 1.898)" fill="#fff"/><path d="M10.4,14.711,6.242,9.7l-.867.165,1.067,5.6-3.615.689L0,1.313,6.067.157A6.8,6.8,0,0,1,9.175.2a4.3,4.3,0,0,1,2.17,1.328A4.776,4.776,0,0,1,12.412,3.79a4.5,4.5,0,0,1-.332,2.8A4.573,4.573,0,0,1,9.931,8.709l4.545,5.225ZM4.888,7.3l2.241-.427a2.087,2.087,0,0,0,1.4-.77,1.869,1.869,0,0,0,.235-1.469A1.812,1.812,0,0,0,8.011,3.4a2.089,2.089,0,0,0-1.583-.2l-2.241.427Z" transform="translate(53.417)" fill="#fff"/></g></g></g><path d="M394.12,6177.36l23.267-2.325" transform="translate(5.408 -6072.648)" fill="none" stroke="#72777e" stroke-linecap="round" stroke-width="1"/><path d="M385.437,6178.31l20.1-1.758" transform="translate(-98 -5994.401)" fill="none" stroke="#72777e" stroke-linecap="round" stroke-width="1"/></g></g></g></svg>